<?xml version="1.0" encoding="UTF-8" standalone="no"?>
<svg
   width="392.95914"
   height="351.70105"
   viewBox="0 0 392.95913 351.70106"
   fill="none"
   version="1.1"
   id="svg7"
   sodipodi:docname="404.svg"
   inkscape:version="1.3.2 (1:1.3.2+202311252150+091e20ef0f)"
   xmlns:inkscape="http://www.inkscape.org/namespaces/inkscape"
   xmlns:sodipodi="http://sodipodi.sourceforge.net/DTD/sodipodi-0.dtd"
   xmlns="http://www.w3.org/2000/svg"
   xmlns:svg="http://www.w3.org/2000/svg">
  <defs
     id="defs7" />
  <sodipodi:namedview
     id="namedview7"
     pagecolor="#ffffff"
     bordercolor="#000000"
     borderopacity="0.25"
     inkscape:showpageshadow="2"
     inkscape:pageopacity="0.0"
     inkscape:pagecheckerboard="0"
     inkscape:deskcolor="#d1d1d1"
     inkscape:zoom="0.91992188"
     inkscape:cx="147.83864"
     inkscape:cy="309.26539"
     inkscape:window-width="1920"
     inkscape:window-height="1017"
     inkscape:window-x="0"
     inkscape:window-y="26"
     inkscape:window-maximized="1"
     inkscape:current-layer="svg7" />
  <path
     style="fill:#1a1a1a;stroke-width:6.53489"
     d="m 116.96325,350.05954 c -32.987396,-5.22967 -61.779276,-27.11045 -75.905936,-57.68576 -5.36887,-11.62027 -7.79626,-22.09858 -8.55509,-36.93036 l -0.66865,-13.06978 -10.34819,-5.27483 C 9.4503335,230.96405 3.9261335,225.98224 1.6051335,219.1704 c -4.33485,-12.72205 0.30191,-25.85843 11.5954405,-32.84827 l 3.32424,-2.05751 0.40124,-48.31859 c 0.3849,-46.355504 0.49861,-48.679634 2.78968,-57.20603 10.68997,-39.78036 41.05623,-68.37919 81.126076,-76.40423 3.45042,-0.69107 12.1549,-1.3094 19.34327,-1.37403 l 13.06978,-0.11763 v 175.13505 175.13505 l -3.65953,0.18363 c -2.01275,0.10129 -7.69726,-0.45614 -12.63227,-1.23856 z m 14.72344,-23.51652 v -23.00281 l -3.92094,0.0196 c -2.15651,0.0131 -6.97926,0.47117 -10.71722,1.02095 -8.44719,1.24287 -13.01273,-0.0261 -15.17917,-4.21389 -3.302276,-6.38596 -0.80125,-17.80895 5.69528,-26.01141 3.45951,-4.36792 14.27148,-10.54869 18.45283,-10.54869 5.45134,0 5.66922,-0.48554 5.66922,-12.62965 V 239.8168 l -5.82828,-1.6943 c -3.20549,-0.93188 -5.60216,-1.92034 -5.32593,-2.19664 0.27642,-0.27642 2.3108,-6e-5 4.52123,0.61363 2.21049,0.61362 4.60716,1.11864 5.326,1.12184 1.03316,0.005 1.30698,-15.32628 1.30698,-73.18495 V 91.285616 h -3.63758 c -6.28618,0 -17.47711,-4.4074 -26.15714,-10.301666 l -8.360276,-5.67706 -7.84625,1.21131 c -16.38545,2.52959 -31.71768,13.187406 -39.05309,27.14665 -6.31963,12.02629 -6.92411,16.57163 -6.94149,52.19953 l -0.0131,31.64285 -3.78723,-1.58236 c -4.89091,-2.04359 -14.03975,-2.02484 -18.98778,0.0392 -16.28370048,6.79171 -20.8925005,29.18946 -8.4841805,41.23136 3.4940805,3.39089 20.2825405,12.56313 22.9949705,12.56313 1.3241,0 1.17073,-13.26086 -0.21107,-18.23737 -1.45683,-5.24713 -6.09366,-9.58316 -12.28664,-11.48977 -3.95649,-1.21804 -4.31519,-1.50819 -1.93799,-1.56753 4.46666,-0.11175 10.71421,3.60478 13.44554,7.99792 2.32661,3.74221 2.49064,5.18256 3.07067,26.95629 0.51103,19.18186 1.00337,24.47898 2.96423,31.88974 5.66477,21.40895 18.47237,40.73073 35.91837,54.18711 14.67096,11.31595 37.168096,19.7436 53.300056,19.96664 l 6.0121,0.083 z M 82.096224,197.3389 c -1.91224,-1.91217 -2.15188,-6.95403 -0.47901,-10.07967 1.11622,-2.08574 0.98213,-2.14586 -3.26941,-1.46604 -2.43836,0.39014 -7.2517,1.65836 -10.6963,2.81876 -8.0006,2.69519 -9.09853,1.87107 -1.36305,-1.0231 17.47573,-6.53855 32.61485,-4.63494 43.179606,5.42938 5.46944,5.2104 3.9012,5.56426 -1.82866,0.41235 -2.87476,-2.58461 -6.68996,-5.20935 -8.478226,-5.83278 l -3.25144,-1.13341 0.69995,3.73116 c 1.11943,5.96707 -1.36448,8.78623 -7.74129,8.78623 -3.26875,0 -5.72509,-0.59599 -6.77217,-1.64307 z m -6.33081,-40.59055 c -5.32221,-5.32221 -2.8019,-8.20514 12.85478,-14.70376 11.02286,-4.57534 11.990346,-4.80158 14.237176,-3.3294 1.32586,0.86869 2.63846,2.45072 2.91691,3.51558 1.12001,4.28296 -0.96115,6.20278 -11.900296,10.97789 -15.25831,6.66043 -15.03201,6.61619 -18.10857,3.53969 z M 127.76575,302.5009 c 3.78279,-0.006 3.92094,-0.13527 3.92094,-3.66581 v -3.65954 h -15.16095 c -8.33852,0 -15.16094,0.25878 -15.16094,0.57442 0,1.40062 3.21843,6.61265 4.4217,7.1606 0.73093,0.33263 5.0931,0.37837 9.69366,0.10064 4.60056,-0.27773 10.12908,-0.50711 12.28559,-0.51103 z m 3.92094,-30.99309 v -6.93842 l -4.70846,0.64565 c -5.36965,0.73603 -11.2951,3.51133 -16.06361,7.52375 -5.86983,4.93914 -4.69185,5.7077 8.74787,5.7077 h 12.0242 z m 70.05402,70.7511 v -9.44239 h -24.0484 -24.04839 v -10.2718 -10.27187 l 22.73677,-32.59701 22.73678,-32.59708 h 14.3814 14.3814 v 31.36747 31.36747 h 5.7507 5.7507 v 11.50141 11.50141 h -5.70999 -5.70999 l -0.30191,9.14884 -0.30191,9.14885 -12.80839,0.29341 -12.80845,0.29342 z m 2.09116,-48.86085 c 0,-9.39554 -0.38948,-15.99087 -0.91142,-15.42234 -0.83411,0.909 -18.59758,27.50189 -20.39408,30.53101 -0.59991,1.01199 1.71658,1.30697 10.26513,1.30697 h 11.04037 z M 259.24774,175.81847 V 0 l 14.37675,0.62604 c 19.96115,0.86927 32.51036,4.0136 47.54054,11.91173 23.26702,12.22646 40.92978,32.99499 49.63301,58.3603 4.76512,13.88794 5.54205,23.721836 5.54871,70.23013 l 0.006,43.04499 3.58642,2.21651 c 8.81112,5.44559 13.69843,14.82544 12.94372,24.84173 -0.9192,12.19848 -6.11476,18.41767 -21.64774,25.91267 l -10.29807,4.96906 -0.54305,13.19995 c -0.86411,21.00334 -7.0058,38.48763 -19.38333,55.1812 -12.23423,16.50034 -29.17999,28.85174 -48.82733,35.58914 -6.99691,2.39935 -23.98494,5.53427 -30.06049,5.54734 l -2.87535,0.006 z m 20.03545,172.22728 c 32.78482,-6.41001 61.24407,-30.0271 73.15992,-60.71207 5.50107,-14.1662 7.15126,-24.74318 7.16681,-45.93687 0.0131,-16.88459 0.23199,-19.20258 2.20533,-23.27905 2.5111,-5.18726 9.26,-9.78887 14.10674,-9.6185 l 3.04493,0.10717 -3.13675,0.7636 c -10.50124,2.55651 -14.34598,7.99439 -14.97653,21.18213 -0.30845,6.45483 -0.0836,9.20766 0.75223,9.20766 0.65591,0 5.88931,-2.35694 11.62988,-5.23772 11.81306,-5.92806 15.64146,-9.99884 17.77758,-18.90334 2.26977,-9.46154 -0.65022,-18.4099 -8.24618,-25.27258 -2.30616,-2.08352 -6.01785,-4.33492 -8.24814,-5.00311 -3.96563,-1.18811 -12.55751,-0.91345 -18.29351,0.58487 l -2.87535,0.75106 -0.0196,-30.70516 c -0.0131,-22.31031 -0.41954,-32.59819 -1.48578,-37.62908 -4.49626,-21.212444 -22.01924,-38.07991 -43.28632,-41.66704 l -7.35339,-1.24032 -5.58119,4.12305 c -9.88238,7.300586 -18.02178,10.620956 -28.5357,11.640926 l -6.2735,0.6084 -0.26858,72.929374 c -0.30126,81.81283 -1.09185,74.16649 7.42422,71.80177 6.41635,-1.78167 5.54708,-0.38425 -1.10485,1.77632 l -6.05072,1.96524 -0.29995,10.89307 c -0.32675,11.8786 -0.0196,12.58032 5.52779,12.62671 4.53849,0.0392 12.98215,4.33891 17.49626,8.91209 7.80841,7.91055 11.38423,20.99745 7.52322,27.53365 -2.76406,4.67917 -6.04516,5.45003 -17.60747,4.13665 -5.43605,-0.61755 -10.60711,-0.84516 -11.49121,-0.5058 -1.37926,0.52932 -1.60105,3.81343 -1.56263,23.14194 l 0.0457,22.52518 h 5.5819 c 3.07003,0 9.03449,-0.67506 13.25439,-1.50015 z m 18.08877,-151.59128 c -1.16021,-1.77076 -1.4465,-3.64457 -0.95606,-6.25872 l 0.69995,-3.73116 -3.25143,1.13341 c -1.78827,0.62343 -5.60354,3.24816 -8.47824,5.83284 -2.87476,2.58462 -5.2268,4.2252 -5.2268,3.64575 0,-0.57964 2.15469,-2.9503 4.78818,-5.26842 10.29376,-9.06089 24.97086,-10.51203 41.97491,-4.14999 7.59759,2.84262 6.34642,3.61334 -1.54838,0.95377 -3.44467,-1.1604 -8.25794,-2.42889 -10.69631,-2.81876 -4.25153,-0.67982 -4.38563,-0.61951 -3.2694,1.46604 1.62843,3.04277 1.44963,6.66735 -0.46333,9.39894 -1.30697,1.86597 -2.64127,2.3238 -6.77217,2.3238 -4.28675,0 -5.42062,-0.4215 -6.8006,-2.5275 z m 3.69907,-42.33288 c -9.31529,-3.93172 -12.33754,-5.70496 -13.41495,-7.87095 -1.18164,-2.37556 -1.15243,-3.15962 0.19409,-5.21465 0.87162,-1.33024 2.50632,-2.6597 3.63261,-2.95422 1.8976,-0.496 24.53354,8.42562 26.34025,10.38191 2.2857,2.47502 2.11972,5.6021 -0.43327,8.15482 -1.44728,1.44722 -3.00565,2.61938 -3.4631,2.60474 -0.45744,-0.0131 -6.24258,-2.31041 -12.85589,-5.10165 z m -13.502,148.07838 c 1.57589,-1.20987 4.09176,-5.16531 4.09176,-6.43288 0,-0.32544 -7.08748,-0.59141 -15.75,-0.59141 h -15.75 l 0.3274,3.39814 0.3274,3.39815 7.31907,0.59925 c 12.67795,1.03852 17.72308,0.94207 19.43392,-0.37119 z m -2.18173,-24.37651 c 0,-4.35257 -14.0048,-12.9698 -21.07868,-12.9698 h -4.0153 v 6.09921 c 0,3.35462 0.31367,6.41295 0.69701,6.79629 0.86339,0.86339 24.39697,0.93507 24.39697,0.0745 z m -99.85312,-53.05645 c -11.42567,-2.97599 -18.5504,-8.87549 -23.38439,-19.36294 -8.29538,-17.99702 -8.60605,-47.63954 -0.68694,-65.54599 2.77491,-6.27448 9.83579,-14.4555 14.60685,-16.92399 8.58724,-4.44294 22.52073,-5.69307 32.83998,-2.94645 17.87063,4.75655 26.8314,20.14105 28.08499,48.21833 1.22876,27.52045 -6.98828,47.16328 -22.67424,54.20273 -7.60079,3.41108 -20.64247,4.47947 -28.78625,2.35831 z m 19.06012,-25.34942 c 1.28195,-0.82549 3.03506,-2.86281 3.89584,-4.52744 3.81768,-7.38253 4.64669,-28.94675 1.5802,-41.10498 -2.13822,-8.47784 -8.42465,-12.46033 -17.09991,-10.83282 -8.58319,1.6102 -11.62518,9.58145 -11.60623,30.41285 0.0196,18.48224 2.59494,25.2271 10.59253,27.71107 3.647,1.13276 9.49441,0.3653 12.63757,-1.65868 z M 201.74071,95.469316 V 86.05908 h -24.0484 -24.04839 l 0.0131,-10.19443 0.0131,-10.19443 14.36179,-20.49642 c 7.89885,-11.27308 18.12576,-25.96449 22.72632,-32.64766 l 8.36466,-12.15123 14.11536,0.2346 14.11536,0.2346 0.27643,31.62887 0.27642,31.62887 h 5.73535 5.73541 v 10.97861 10.97862 h -5.7507 -5.7507 v 9.410236 9.410244 h -13.06985 -13.06978 z m 1.85695,-47.835396 c 0.1588,-8.76982 -0.0765,-15.91448 -0.52279,-15.87697 -0.7144,0.0588 -20.10949,29.08791 -21.03862,31.48765 -0.20193,0.52148 4.41144,0.80065 10.45582,0.63323 l 10.81694,-0.2993 z"
     id="path1" />
</svg>
