<?xml version="1.0" encoding="UTF-8" standalone="no"?>
<!-- Created with Inkscape (http://www.inkscape.org/) -->

<svg
   version="1.1"
   id="svg1"
   width="151.47289"
   height="184.33005"
   viewBox="0 0 151.47289 184.33005"
   sodipodi:docname="arrow-up.svg"
   inkscape:version="1.3.2 (1:1.3.2+202311252150+091e20ef0f)"
   xmlns:inkscape="http://www.inkscape.org/namespaces/inkscape"
   xmlns:sodipodi="http://sodipodi.sourceforge.net/DTD/sodipodi-0.dtd"
   xmlns="http://www.w3.org/2000/svg"
   xmlns:svg="http://www.w3.org/2000/svg">
  <defs
     id="defs1" />
  <sodipodi:namedview
     id="namedview1"
     pagecolor="#ffffff"
     bordercolor="#000000"
     borderopacity="0.25"
     inkscape:showpageshadow="2"
     inkscape:pageopacity="0.0"
     inkscape:pagecheckerboard="0"
     inkscape:deskcolor="#d1d1d1"
     inkscape:zoom="1.4749035"
     inkscape:cx="52.206806"
     inkscape:cy="210.52225"
     inkscape:window-width="1920"
     inkscape:window-height="1017"
     inkscape:window-x="0"
     inkscape:window-y="26"
     inkscape:window-maximized="1"
     inkscape:current-layer="g1" />
  <g
     inkscape:groupmode="layer"
     inkscape:label="Image"
     id="g1"
     transform="translate(-72.571389,-1.6038467)">
    <path
       style="fill:#000000"
       d="m 108.22368,388.06561 c -29.833423,-5.4649 -53.594511,-28.05166 -60.971931,-57.95855 -2.248602,-9.11548 -2.239222,-26.0769 0.01949,-35.23509 6.187343,-25.08725 23.791138,-45.09215 47.546441,-54.03162 43.57576,-16.3982 91.18654,8.73395 102.35844,54.03162 2.25871,9.15819 2.26809,26.11961 0.0195,35.23509 -4.71076,19.09666 -15.9748,35.3059 -31.89648,45.89982 -17.35023,11.54445 -37.10183,15.7175 -57.07545,12.05873 z m 20,-31.62666 c 1.89846,-1.86364 2.01486,-3.49235 2.29269,-32.07931 l 0.29269,-30.11598 9.32261,9.14236 c 7.80314,7.65227 9.84093,9.14235 12.50276,9.14235 4.29126,0 8.08925,-3.83765 8.08925,-8.17372 0,-2.89711 -2.00173,-5.26636 -17.78082,-21.04546 -14.88323,-14.88323 -18.25441,-17.78082 -20.68695,-17.78082 -2.42838,0 -5.83444,2.91197 -20.71918,17.7136 -15.975581,15.88639 -17.813052,18.0573 -17.813052,21.04546 0,4.40557 3.76477,8.24094 8.089247,8.24094 2.662893,0 4.703463,-1.49386 12.545455,-9.18422 l 9.3653,-9.18422 v 29.46171 c 0,25.44157 0.21928,29.77478 1.607,31.75603 3.13632,4.47773 8.92715,4.9544 12.893,1.06128 z"
       id="path1" />
    <path
       style="fill:#ffffff;stroke:#ffffff;stroke-width:0.236788"
       d="m 143.40951,185.30859 c -4.59214,-1.71604 -8.47278,-5.4942 -9.6236,-9.36944 -1.42597,-4.80172 -1.76801,-15.79402 -2.0825,-66.92366 l -0.31436,-51.108959 -13.02338,12.750504 c -20.828165,20.3918 -24.705439,23.40346 -30.130004,23.40346 -8.032377,0 -15.477606,-7.46396 -15.544243,-15.58336 -0.02292,-2.79682 0.163975,-3.47265 1.63159,-5.89748 0.911641,-1.50628 3.356347,-4.694859 5.432684,-7.085731 C 88.626618,55.2792 130.68653,13.74701 138.85243,7.1386457 c 3.96604,-3.209561 7.87149,-5.416405 9.58538,-5.416405 1.70016,0 5.60753,2.197243 9.47154,5.326199 9.22343,7.4688173 54.07167,52.2575873 61.20094,61.1197953 4.1054,5.10331 5.01003,7.205 4.78363,11.11368 -0.45157,7.7959 -6.88987,14.24677 -14.66884,14.69744 -5.85303,0.33912 -8.33235,-1.50981 -29.31076,-21.85818 l -14.42775,-13.994443 -0.29097,5.535494 c -0.16002,3.044519 -0.3257,13.953309 -0.36817,24.241769 -0.12644,30.626085 -0.93225,75.597525 -1.4639,81.692015 -0.62538,7.16904 -1.42267,9.63832 -3.80789,11.79323 -3.23432,2.92201 -6.35705,4.2118 -10.64426,4.39644 -2.40778,0.10372 -4.41304,-0.0701 -5.50187,-0.47709 z"
       id="path2" />
  </g>
</svg>
