<?xml version="1.0" encoding="UTF-8" standalone="no"?>
<!-- Created with Inkscape (http://www.inkscape.org/) -->

<svg
   version="1.1"
   id="svg1"
   width="512"
   height="512"
   viewBox="0 0 512 512"
   sodipodi:docname="chat.svg"
   inkscape:version="1.3.2 (1:1.3.2+202311252150+091e20ef0f)"
   xmlns:inkscape="http://www.inkscape.org/namespaces/inkscape"
   xmlns:sodipodi="http://sodipodi.sourceforge.net/DTD/sodipodi-0.dtd"
   xmlns="http://www.w3.org/2000/svg"
   xmlns:svg="http://www.w3.org/2000/svg">
  <defs
     id="defs1" />
  <sodipodi:namedview
     id="namedview1"
     pagecolor="#ffffff"
     bordercolor="#000000"
     borderopacity="0.25"
     inkscape:showpageshadow="2"
     inkscape:pageopacity="0.0"
     inkscape:pagecheckerboard="0"
     inkscape:deskcolor="#d1d1d1"
     inkscape:zoom="0.74609375"
     inkscape:cx="372.60733"
     inkscape:cy="343.79058"
     inkscape:window-width="1920"
     inkscape:window-height="1017"
     inkscape:window-x="0"
     inkscape:window-y="26"
     inkscape:window-maximized="1"
     inkscape:current-layer="g1" />
  <g
     inkscape:groupmode="layer"
     inkscape:label="Image"
     id="g1">
    <path
       style="fill:#1a1a1a;stroke-width:0.984664"
       d="m 463.72088,508.14764 c -13.60403,-2.25551 -27.65767,-8.84172 -38.28003,-17.93988 -10.48005,-8.97625 -14.46713,-9.41686 -29.00879,-3.20574 -33.62874,14.36371 -69.67727,18.657 -105.07372,12.514 -40.17265,-6.97189 -77.59199,-27.14351 -104.8873,-56.54152 -8.20472,-8.83676 -18.89922,-22.92293 -23.18674,-30.54021 l -2.12937,-3.78306 6.76039,0.78072 c 9.90787,1.14422 36.77182,0.8468 48.11626,-0.53272 81.20314,-9.87445 149.08299,-62.41761 179.05316,-138.59812 13.46572,-34.22821 17.87912,-77.4771 11.8127,-115.75813 -0.32183,-2.03086 -0.18212,-3.69248 0.31048,-3.69248 0.4926,0 5.71375,2.89383 11.60258,6.43076 31.51185,18.92646 55.39632,45.07985 71.01219,77.75798 16.90035,35.36606 21.78213,70.67848 15.24603,110.28232 -2.31773,14.0437 -4.50226,22.7363 -10.49112,41.74582 -7.1378,22.65647 -8.3162,29.03202 -8.93836,48.35971 -0.77284,24.00887 2.01045,40.16532 10.71333,62.18882 1.68423,4.2621 2.81955,7.99195 2.52295,8.28855 -0.2966,0.2966 -4.01796,1.1593 -8.26969,1.91709 -8.64069,1.54004 -18.81841,1.66349 -26.88495,0.32609 z M 20.086257,381.59453 c -3.789448,-0.81182 -7.032824,-1.61895 -7.207503,-1.79363 -0.17468,-0.17468 0.54944,-2.02217 1.609156,-4.10551 3.007756,-5.9131 7.80584,-21.01264 10.199559,-32.09794 1.82963,-8.47302 2.179196,-13.17189 2.179196,-29.29279 0,-22.9821 -1.511038,-31.47184 -9.702807,-54.51504 C 8.1843377,234.53051 5.2680982,220.78445 4.1838457,198.60668 2.0856545,155.6894 16.412458,111.32496 43.613577,76.508388 49.594831,68.852579 64.615391,53.642943 72.763018,46.992022 94.79185,29.009849 124.82385,14.692623 152.16969,9.1362947 229.98036,-6.6738386 307.31323,27.388285 349.13812,95.893254 c 43.77534,71.699606 32.19377,166.970156 -27.52087,226.388176 -35.04317,34.8691 -82.1129,54.08719 -132.37895,54.04896 -25.4371,-0.0194 -49.66711,-5.12305 -74.4995,-15.69224 -13.48352,-5.73887 -17.18126,-5.28906 -27.205827,3.30949 -18.589438,15.94502 -44.160588,22.63551 -67.446716,17.64689 z M 102.94032,215.31812 c 9.09252,-4.44856 14.25564,-13.07938 14.25564,-23.83014 0,-10.79076 -5.02632,-18.74583 -15.27068,-24.16861 -5.773208,-3.056 -17.152153,-3.0294 -22.981962,0.0538 -9.151751,4.83997 -14.173436,12.49821 -14.859054,22.66056 -1.404252,20.81407 19.796131,34.60961 38.856056,25.28446 z m 97.30054,1.09104 c 5.06474,-2.11618 11.43509,-8.4398 13.96628,-13.86382 8.49192,-18.19713 -6.83165,-39.66034 -26.85133,-37.60975 -13.98261,1.43222 -24.12682,12.59627 -24.12682,26.55239 0,12.68183 6.8217,21.92244 19.1509,25.9416 4.68232,1.52638 12.88758,1.0576 17.86097,-1.02042 z m 100.53057,-0.70189 c 8.63886,-4.06075 15.2035,-14.48045 15.2035,-24.13171 0,-14.06482 -12.94113,-26.93977 -27.07825,-26.93977 -9.46736,0 -19.95875,6.71991 -24.18104,15.48837 -2.91986,6.0637 -3.16873,16.78729 -0.5089,21.92884 4.27542,8.26462 10.85653,13.86704 18.61652,15.84805 4.61843,1.179 12.93559,0.16241 17.94817,-2.19378 z"
       id="path1" />
  </g>
</svg>
