<?xml version="1.0" encoding="UTF-8" standalone="no"?>
<!-- Created with Inkscape (http://www.inkscape.org/) -->

<svg
   version="1.1"
   id="svg1"
   width="512"
   height="512"
   viewBox="0 0 512 512"
   sodipodi:docname="comment.svg"
   inkscape:version="1.3.2 (1:1.3.2+202311252150+091e20ef0f)"
   xmlns:inkscape="http://www.inkscape.org/namespaces/inkscape"
   xmlns:sodipodi="http://sodipodi.sourceforge.net/DTD/sodipodi-0.dtd"
   xmlns="http://www.w3.org/2000/svg"
   xmlns:svg="http://www.w3.org/2000/svg">
  <defs
     id="defs1" />
  <sodipodi:namedview
     id="namedview1"
     pagecolor="#ffffff"
     bordercolor="#000000"
     borderopacity="0.25"
     inkscape:showpageshadow="2"
     inkscape:pageopacity="0.0"
     inkscape:pagecheckerboard="0"
     inkscape:deskcolor="#d1d1d1"
     inkscape:zoom="0.52756795"
     inkscape:cx="-109.93844"
     inkscape:cy="376.25485"
     inkscape:window-width="1920"
     inkscape:window-height="1017"
     inkscape:window-x="0"
     inkscape:window-y="26"
     inkscape:window-maximized="1"
     inkscape:current-layer="g1" />
  <g
     inkscape:groupmode="layer"
     inkscape:label="Image"
     id="g1">
    <path
       style="fill:#000000;stroke-width:1.03357"
       d="M 284.02633,479.00913 C 340.50241,473.45603 392.07926,448.5235 430.8087,408.05372 497.69659,338.16017 513.8502,233.57063 471.17702,146.68158 458.98805,121.86297 444.73855,102.29782 424.44988,82.523274 389.63392,48.589577 346.37381,27.09343 297.46278,19.422801 280.95619,16.834102 245.79102,16.811933 229.34633,19.379856 164.08303,29.57107 107.01177,65.940851 70.855685,120.38113 25.519535,188.64384 19.553925,274.74482 55.056543,348.40804 l 6.562396,13.61609 -14.947385,48.39832 c -12.677915,41.04998 -14.889215,49.1939 -14.56429,53.63824 0.424706,5.80911 2.531252,9.29398 7.812131,12.92357 6.855672,4.71196 8.977412,4.15296 56.21327,-14.81005 23.710505,-9.51868 43.603125,-17.30668 44.205805,-17.30668 0.60269,0 2.94274,1.16592 5.2001,2.59093 15.92877,10.05539 43.75748,21.29547 65.10404,26.29567 21.24006,4.97525 53.05694,7.25365 73.38372,5.255 z m -51.92055,-34.07696 c -27.39923,-4.72399 -49.99193,-13.27083 -72.60808,-27.46772 -16.54003,-10.3827 -14.02049,-10.61942 -52.98762,4.97835 -17.764541,7.1108 -32.299167,12.71952 -32.299167,12.46383 0,-0.25569 4.883634,-16.70315 10.852521,-36.54991 5.968887,-19.84676 10.852521,-37.45992 10.852521,-39.14034 0,-1.76828 -3.397614,-9.73877 -8.065594,-18.92114 C 69.245832,303.69831 61.824723,265.2065 66.007605,227.00119 73.617662,157.4929 115.49881,97.919602 178.08505,67.57809 c 15.04815,-7.295277 30.22979,-12.446198 47.79663,-16.216746 12.40018,-2.661577 14.72077,-2.828673 39.02354,-2.80994 24.10091,0.01857 26.71871,0.20742 38.91001,2.80687 63.9478,13.635071 114.7982,53.313436 142.03185,110.826906 12.32909,26.03723 17.87511,49.59365 18.73718,79.58516 1.02033,35.49731 -5.34123,64.60793 -20.89272,95.60555 -30.8757,61.5422 -90.23699,102.22706 -159.8466,109.55516 -12.89272,1.35727 -37.8703,0.39229 -51.73916,-1.99888 z M 387.90046,280.18634 c 9.76986,-3.22154 15.71627,-8.04506 20.2246,-16.40549 3.20384,-5.94132 3.50883,-7.27053 3.50883,-15.29228 0,-8.02332 -0.30463,-9.35032 -3.51204,-15.29832 -3.91103,-7.25285 -7.15386,-10.38495 -14.94248,-14.43226 -4.48576,-2.331 -6.59891,-2.74655 -14.06428,-2.76569 -8.04363,-0.0207 -9.33475,0.27371 -15.29228,3.48629 -11.28671,6.08631 -17.21273,16.05979 -17.23712,29.00998 -0.0251,13.32711 6.90393,24.24607 18.85971,29.71961 6.71745,3.07534 16.51118,3.93812 22.45506,1.97816 z m -115.76023,0 c 9.76987,-3.22154 15.71627,-8.04506 20.22461,-16.40549 3.20384,-5.94132 3.50882,-7.27053 3.50882,-15.29228 0,-8.02332 -0.30463,-9.35032 -3.51204,-15.29832 -3.91103,-7.25285 -7.15386,-10.38495 -14.94247,-14.43226 -4.48576,-2.331 -6.59892,-2.74655 -14.06429,-2.76569 -8.04363,-0.0207 -9.33475,0.27371 -15.29228,3.48629 -11.2867,6.08631 -17.21273,16.05979 -17.23712,29.00998 -0.0251,13.32711 6.90393,24.24607 18.85972,29.71961 6.71744,3.07534 16.51117,3.93812 22.45505,1.97816 z m -115.76023,0 c 9.76987,-3.22154 15.71627,-8.04506 20.22461,-16.40549 3.20384,-5.94132 3.50882,-7.27053 3.50882,-15.29228 0,-8.02332 -0.30463,-9.35032 -3.51204,-15.29832 -3.91103,-7.25285 -7.15385,-10.38495 -14.94247,-14.43226 -4.48576,-2.331 -6.59891,-2.74655 -14.06429,-2.76569 -8.04363,-0.0207 -9.33475,0.27371 -15.29228,3.48629 -11.2867,6.08631 -17.21273,16.05979 -17.23712,29.00998 -0.0251,13.32711 6.90393,24.24607 18.85972,29.71961 6.71744,3.07534 16.51117,3.93812 22.45505,1.97816 z"
       id="path1" />
  </g>
</svg>
