<?xml version="1.0" encoding="UTF-8" standalone="no"?>
<svg
   width="333.5788"
   height="377.30139"
   viewBox="0 0 333.57879 377.3014"
   fill="none"
   version="1.1"
   id="svg7"
   sodipodi:docname="empty.svg"
   inkscape:version="1.3.2 (1:1.3.2+202311252150+091e20ef0f)"
   xmlns:inkscape="http://www.inkscape.org/namespaces/inkscape"
   xmlns:sodipodi="http://sodipodi.sourceforge.net/DTD/sodipodi-0.dtd"
   xmlns="http://www.w3.org/2000/svg"
   xmlns:svg="http://www.w3.org/2000/svg">
  <defs
     id="defs7" />
  <sodipodi:namedview
     id="namedview7"
     pagecolor="#ffffff"
     bordercolor="#000000"
     borderopacity="0.25"
     inkscape:showpageshadow="2"
     inkscape:pageopacity="0.0"
     inkscape:pagecheckerboard="0"
     inkscape:deskcolor="#d1d1d1"
     inkscape:zoom="0.91992188"
     inkscape:cx="116.31422"
     inkscape:cy="322.30998"
     inkscape:window-width="1920"
     inkscape:window-height="1017"
     inkscape:window-x="0"
     inkscape:window-y="26"
     inkscape:window-maximized="1"
     inkscape:current-layer="svg7" />
  <path
     style="fill:#28303f;fill-opacity:1;stroke-width:0.810711"
     d="M 104.74901,359.85086 C 72.198947,350.06367 44.107801,341.29653 42.324236,340.3683 c -3.565475,-1.85559 -6.506537,-5.60672 -7.723862,-9.85128 -0.433734,-1.51235 -0.788607,-11.39054 -0.788607,-21.95155 0,-16.37527 0.187533,-19.38938 1.273975,-20.47582 0.700686,-0.70069 1.586677,-1.27397 1.96887,-1.27397 0.382193,0 1.268185,0.57328 1.96887,1.27397 1.089155,1.08915 1.274413,4.1765 1.277008,21.28118 0.0032,23.04757 0.250939,24.03455 6.616702,26.39133 8.859088,3.27987 117.720738,35.3675 119.989068,35.3675 2.72112,0 117.90693,-34.25821 121.65783,-36.1831 4.47504,-2.2965 4.67532,-3.60993 4.67532,-30.66033 0,-13.62182 -0.31214,-24.76696 -0.69364,-24.76696 -0.3815,0 -19.25,6.01954 -41.93001,13.37674 -22.68,7.35721 -42.23339,13.37674 -43.45198,13.37674 -4.69733,0 -6.22382,-1.67316 -19.91029,-21.82326 -14.36717,-21.15227 -15.92115,-24.52103 -11.54682,-25.03159 1.84555,-0.2154 3.39821,1.76089 15.76396,20.06511 11.85292,17.54508 13.99482,20.30405 15.7629,20.30405 1.86311,0 63.71691,-19.78155 103.43617,-33.08007 13.86604,-4.64252 16.24994,-5.67913 16.46084,-7.1578 0.1651,-1.15756 -5.15375,-9.73248 -16.09178,-25.94276 -8.98612,-13.31753 -16.40765,-24.28866 -16.49232,-24.38028 -0.0847,-0.0916 -28.85319,-9.5029 -63.93008,-20.91394 l -63.77618,-20.74734 -46.04375,14.97075 c -25.324059,8.23392 -50.105933,16.2818 -55.070824,17.88418 -4.964894,1.60237 -9.61635,2.68729 -10.33657,2.41092 -1.549699,-0.59468 -1.741473,-3.83494 -0.296096,-5.00301 0.557364,-0.45043 24.361874,-8.3912 52.89891,-17.64614 28.53705,-9.25494 52.30427,-17.04833 52.81606,-17.31863 1.01994,-0.53869 -27.70552,-43.49475 -29.59,-44.24888 -1.16943,-0.46799 -118.195302,37.27285 -119.903384,38.66882 -0.557364,0.45552 -1.013389,1.548 -1.013389,2.42773 0,1.47239 25.173361,39.71094 28.330203,43.03381 0.832157,0.87593 26.724492,9.67201 64.80241,22.01452 l 63.41651,20.55572 54.83468,-17.7974 c 30.15908,-9.78858 55.76929,-17.6886 56.91157,-17.55561 2.41193,0.28081 3.2447,3.05867 1.38071,4.60564 -1.00064,0.83047 -45.69959,15.58379 -97.4378,32.16031 l -13.81998,4.42781 -17.7102,26.2358 c -10.74047,15.9109 -18.5915,26.75641 -19.94962,27.55867 -1.23169,0.72758 -3.26745,1.32287 -4.5239,1.32287 -2.44318,0 -117.9961265,-37.29579 -122.0533189,-39.39384 -2.971182,-1.53646 -5.04692797,-6.11387 -4.34546297,-9.58258 0.278479,-1.37707 6.43695197,-11.25944 13.68549587,-21.96083 10.911164,-16.1087 13.505792,-19.45707 15.077149,-19.45707 1.04389,0 2.294773,0.62905 2.779742,1.39789 0.731375,1.15947 -1.362142,4.72739 -12.274992,20.91994 -7.236214,10.73714 -13.1567539,20.21901 -13.1567539,21.07084 0,0.85182 0.638436,1.88637 1.4187454,2.299 2.9247015,1.54658 116.8370155,38.22096 118.7160655,38.22096 1.66517,0 4.46332,-3.69531 18.5388,-24.48272 9.11769,-13.4655 16.4257,-24.68372 16.24002,-24.92938 -0.34396,-0.45507 -8.58359,-3.16426 -83.563095,-27.47549 L 35.043703,209.1017 19.429574,185.91484 C 5.8962471,165.81796 3.8154451,162.31366 3.8154451,159.6189 c 0,-3.22611 2.064862,-6.69383 4.8843774,-8.20278 4.0146965,-2.1486 119.0843275,-38.90339 121.7963375,-38.90339 4.50042,0 6.67455,2.50466 22.51919,25.94277 7.68651,11.37022 14.52323,21.30496 15.19271,22.0772 0.67294,0.77623 9.77667,4.16837 20.35927,7.58605 10.52812,3.4001 38.63896,12.52721 62.46855,20.28247 23.82958,7.75526 43.56487,14.10047 43.8562,14.10047 1.03502,0 28.34365,-41.23744 28.34365,-42.80037 0,-0.87462 -0.46617,-1.9771 -1.03593,-2.44996 -1.71985,-1.42735 -118.64859,-39.12963 -119.85606,-38.64616 -0.61604,0.24666 -6.40996,8.27372 -12.87539,17.83792 -6.46542,9.56419 -12.41125,17.60794 -13.21296,17.875 -1.6874,0.5621 -3.81198,-0.92297 -3.81198,-2.66457 0,-1.7058 21.482,-33.34564 24.7859,-36.50601 2.11909,-2.02702 3.46505,-2.63481 5.83489,-2.63481 2.48106,0 104.90861,32.46179 119.13508,37.75682 4.6651,1.73632 7.52214,5.2753 7.52214,9.31758 0,2.76962 -1.86756,5.94408 -14.73496,25.04648 l -14.73497,21.87487 16.36588,24.29084 c 9.00123,13.35997 16.57644,25.34367 16.8338,26.63045 0.69082,3.45413 -1.50098,7.95084 -4.67927,9.60004 -1.48428,0.77019 -8.5358,3.26894 -15.67006,5.55279 l -12.97139,4.15246 -0.40535,27.13219 c -0.40456,27.07927 -0.4093,27.13907 -2.42342,30.65722 -1.16443,2.03394 -3.39347,4.32641 -5.26962,5.41956 -4.08322,2.37912 -118.54301,36.82293 -124.04756,37.32902 -3.52863,0.32442 -11.71749,-1.93172 -63.23549,-17.42219 z M 117.92877,222.47885 C 91.735811,213.94382 70.302629,206.76332 70.299483,206.5222 c -0.0057,-0.46134 95.547687,-31.68356 96.773997,-31.62096 1.55998,0.0796 96.16961,31.17465 96.16961,31.60773 0,0.50803 -95.88076,31.71919 -97.0018,31.57608 -0.37891,-0.0484 -22.11953,-7.07116 -48.31252,-15.6062 z m 12.13376,-54.26113 c -1.86567,-1.45563 -6.26181,-8.78183 -6.26181,-10.43535 0,-1.65015 2.61409,-3.3142 4.19751,-2.67201 1.53379,0.62207 6.34174,8.80999 6.34174,10.79997 0,2.22513 -2.5913,3.62297 -4.27744,2.30739 z m -10.15322,-22.62796 c -1.31391,-1.31392 -1.31391,-14.57603 0,-15.88995 1.20124,-1.20124 3.61371,-1.26736 4.32373,-0.11851 0.85073,1.37651 0.9587,14.85824 0.12788,15.96792 -0.96172,1.28451 -3.18737,1.30478 -4.45161,0.0405 z M 135.9623,108.0549 c -1.64058,-1.97677 -0.17253,-3.77177 4.54347,-5.55538 4.79258,-1.81258 16.05309,-3.902579 17.67436,-3.280439 3.25375,1.248569 1.78908,5.997249 -1.84978,5.997249 -1.25066,0 -5.15964,0.77284 -8.68663,1.71743 -9.55298,2.55845 -10.41954,2.64162 -11.68142,1.12114 z m 35.83255,-3.81142 c -1.35315,-1.35314 -1.21757,-4.434749 0.21935,-4.986149 0.65572,-0.25162 6.21923,-0.24763 12.36335,0.009 11.97628,0.49998 14.03867,1.242929 12.32727,4.440689 -0.72988,1.3638 -1.92357,1.50943 -12.37247,1.50943 -7.91378,0 -11.87177,-0.30712 -12.5375,-0.97285 z m 37.33025,-1.5839 c -1.44924,-1.44923 -1.2451,-3.750779 0.40836,-4.603999 0.78031,-0.40265 3.42525,-1.1919 5.87766,-1.75389 2.4524,-0.56198 6.62591,-1.88965 9.27446,-2.95039 5.48279,-2.19582 7.75048,-1.916 7.75048,0.95637 0,2.47787 -2.04837,3.80372 -9.72854,6.296979 -8.3239,2.70224 -12.32915,3.30821 -13.58242,2.05493 z m 30.7695,-14.630329 c -1.46507,-1.46507 -1.28777,-1.91766 2.88577,-7.36633 2.12224,-2.77066 4.37687,-6.679245 5.01029,-8.685755 1.48461,-4.702807 2.26448,-5.67498 4.55246,-5.67498 5.09364,0 1.74447,11.088465 -5.90733,19.558095 -2.91977,3.23184 -4.8412,3.86896 -6.54119,2.16897 z M 187.03622,58.968224 C 178.18094,55.7897 169.74886,48.254146 166.29971,40.436489 c -0.76973,-1.744659 -2.23675,-3.553575 -3.26001,-4.019807 -5.09202,-2.320078 -5.51736,-9.082164 -0.71886,-11.428355 1.55482,-0.760212 3.12633,-2.645311 4.39301,-5.269624 1.0847,-2.247284 4.18567,-6.3011 6.89105,-9.00847 12.30219,-12.3113012 30.72554,-14.4083362 36.94633,-4.2054202 2.67221,4.3827632 1.76631,11.1546912 -1.49218,11.1546912 -2.23573,0 -3.37647,-1.67831 -3.37647,-4.967569 0,-2.327828 -0.51204,-3.4276142 -2.22946,-4.7885152 -1.91576,-1.518065 -2.97276,-1.714598 -7.51214,-1.396718 -6.39738,0.447983 -11.58342,2.622408 -16.23058,6.8052172 -3.5316,3.178718 -8.0777,8.887837 -8.0777,10.144196 0,0.378991 8.70648,0.68908 19.34774,0.68908 18.34602,0 19.45834,0.08699 21.48385,1.680265 3.55659,2.797602 2.60144,8.916438 -1.64379,10.530475 -1.53838,0.584888 -1.90876,1.13952 -1.46293,2.190648 3.2307,7.617047 3.48341,12.804845 0.82163,16.867231 -3.30667,5.046621 -14.2873,6.733079 -23.14298,3.55441 z m 16.60788,-5.960561 c 2.43021,-1.592334 2.72911,-5.372438 0.79149,-10.009796 -2.49242,-5.965215 -2.23005,-5.88129 -18.3876,-5.88129 h -14.51903 l 1.87597,3.348011 c 3.30372,5.896085 11.50619,11.897603 18.8058,13.759677 3.6105,0.921009 9.05518,0.34165 11.43337,-1.216602 z m 42.66369,-5.984971 c -1.30121,-2.577681 -4.04261,-6.311696 -6.092,-8.297817 -3.81035,-3.69271 -4.47158,-5.402881 -2.75332,-7.121135 1.60319,-1.60319 2.93632,-1.139333 6.70233,2.332044 6.45275,5.947946 10.62264,14.046944 8.5303,16.568054 -2.01181,2.424092 -3.93563,1.37559 -6.38731,-3.481146 z"
     id="path1" />
</svg>
