<?xml version="1.0" encoding="UTF-8" standalone="no"?>
<svg
   width="322.90399"
   height="255.60155"
   viewBox="0 0 322.90399 255.60155"
   fill="none"
   version="1.1"
   id="svg7"
   sodipodi:docname="empty.svg"
   inkscape:version="1.3.2 (1:1.3.2+202311252150+091e20ef0f)"
   xmlns:inkscape="http://www.inkscape.org/namespaces/inkscape"
   xmlns:sodipodi="http://sodipodi.sourceforge.net/DTD/sodipodi-0.dtd"
   xmlns="http://www.w3.org/2000/svg"
   xmlns:svg="http://www.w3.org/2000/svg">
  <defs
     id="defs7" />
  <sodipodi:namedview
     id="namedview7"
     pagecolor="#ffffff"
     bordercolor="#000000"
     borderopacity="0.25"
     inkscape:showpageshadow="2"
     inkscape:pageopacity="0.0"
     inkscape:pagecheckerboard="0"
     inkscape:deskcolor="#d1d1d1"
     inkscape:zoom="0.45996094"
     inkscape:cx="46.7431"
     inkscape:cy="366.33545"
     inkscape:window-width="1920"
     inkscape:window-height="1017"
     inkscape:window-x="0"
     inkscape:window-y="26"
     inkscape:window-maximized="1"
     inkscape:current-layer="svg7" />
  <path
     d="m 289.45206,222.6314 v -56"
     stroke="#000000"
     stroke-width="2"
     id="path1" />
  <path
     d="m 289.45206,94.631399 -128,-32 V 126.6314 Z"
     fill="#dae1e7"
     id="path2" />
  <path
     d="m 161.45206,254.6314 v -128 m 0,128 -127.999998,-32 v -56 m 127.999998,88 128,-32 m -128,-96 L 33.452062,94.631399 m 127.999998,32.000001 -32,64 c -50.084998,-12.509 -77.914998,-19.491 -127.9999977,-32 L 33.452062,94.631399 m 127.999998,32.000001 32,64 128,-32 -32,-64.000001 m -128,32.000001 128,-32.000001 m -128,32.000001 V 62.631399 m -127.999998,32 127.999998,-32 m 0,0 128,32"
     stroke="#000000"
     stroke-width="2"
     id="path3" />
  <path
     d="m 214.17206,20.212299 c -0.378,1.0291 -1.622,1.8903 -3.814,2.1746 -2.138,0.2772 -4.905,-0.0497 -7.766,-1.1004 -2.861,-1.0506 -5.182,-2.5918 -6.633,-4.1867 -1.487,-1.6353 -1.878,-3.0971 -1.5,-4.1262 0.378,-1.0291 1.622,-1.8903 3.814,-2.1746 2.138,-0.2772 4.905,0.0497 7.766,1.1004 2.861,1.0506 5.182,2.5918 6.632,4.1867 1.487,1.6353 1.879,3.0971 1.501,4.1262 z"
     stroke="#000000"
     stroke-width="2"
     id="path4" />
  <path
     d="m 207.47606,5.9420991 c 0.029,1.4867 -0.35,2.7951 -0.933,3.7064 -0.587,0.9183999 -1.305,1.3371999 -1.971,1.3498999 -0.666,0.0127 -1.399,-0.3784 -2.021,-1.2736999 -0.617,-0.8884 -1.045,-2.1815 -1.074,-3.6681 -0.028,-1.4867 0.351,-2.7952 0.934,-3.7065 0.587,-0.9183 1.304,-1.3371 1.971,-1.3498 0.666,-0.0128 1.399,0.3784 2.021,1.2737 0.617,0.8884 1.045,2.1814 1.073,3.6681 z"
     stroke="#000000"
     stroke-width="2"
     id="path5" />
  <path
     d="m 213.78506,9.6126991 c -0.761,1.2779999 -1.773,2.1897999 -2.748,2.6565999 -0.984,0.4704 -1.814,0.4476 -2.387,0.107 -0.572,-0.3405 -0.989,-1.0595 -1.045,-2.1482 -0.055,-1.0801999 0.263,-2.4046999 1.023,-3.6826999 0.76,-1.2779 1.772,-2.1897 2.748,-2.6565 0.983,-0.4704 1.814,-0.4477 2.386,-0.1071 0.573,0.3405 0.989,1.0596 1.045,2.1482 0.056,1.0803 -0.262,2.4047 -1.022,3.6827 z"
     stroke="#000000"
     stroke-width="2"
     id="path6" />
  <path
     d="m 151.69906,120.6314 c -22.247,-37.500001 30.295,-58.399001 56.753,-63.000001 28.481,-5.24 41,-31.5 8.5,-37.5"
     stroke="#000000"
     stroke-width="2"
     stroke-dasharray="8, 8"
     id="path7" />
</svg>
