<?xml version="1.0" encoding="UTF-8" standalone="no"?>
<!-- Uploaded to: SVG Repo, www.svgrepo.com, Generator: SVG Repo Mixer Tools -->

<svg
   fill="#000000"
   version="1.1"
   id="Capa_1"
   width="800px"
   height="800px"
   viewBox="0 0 416.979 416.979"
   xml:space="preserve"
   sodipodi:docname="following.svg"
   inkscape:version="1.3.2 (1:1.3.2+202311252150+091e20ef0f)"
   xmlns:inkscape="http://www.inkscape.org/namespaces/inkscape"
   xmlns:sodipodi="http://sodipodi.sourceforge.net/DTD/sodipodi-0.dtd"
   xmlns="http://www.w3.org/2000/svg"
   xmlns:svg="http://www.w3.org/2000/svg"><defs
   id="defs1" /><sodipodi:namedview
   id="namedview1"
   pagecolor="#ffffff"
   bordercolor="#000000"
   borderopacity="0.25"
   inkscape:showpageshadow="2"
   inkscape:pageopacity="0.0"
   inkscape:pagecheckerboard="0"
   inkscape:deskcolor="#d1d1d1"
   inkscape:zoom="0.23875"
   inkscape:cx="62.827225"
   inkscape:cy="496.33508"
   inkscape:window-width="1920"
   inkscape:window-height="1017"
   inkscape:window-x="0"
   inkscape:window-y="26"
   inkscape:window-maximized="1"
   inkscape:current-layer="Capa_1" />

<path
   style="fill:#000000;stroke-width:1.88541"
   d="m 22.311418,401.87485 c -4.48231,-4.48228 -4.138058,-13.93275 -4.138058,-41.47622 0,-33.91265 3.44715,-51.69137 14.09785,-72.70949 9.23848,-18.23124 32.49884,-40.67283 51.442725,-49.63188 l 15.62108,-7.38759 9.068245,4.6185 c 15.78846,8.04112 35.79642,12.71674 54.14587,12.65329 21.48537,-0.0742 35.48226,-3.08991 53.16143,-11.45348 l 13.32914,-6.3057 14.60449,7.37652 c 8.03248,4.0571 19.67453,11.87851 25.87117,17.38089 l 11.26668,10.00436 0.79227,4.90284 c 1.17686,7.28276 -5.68384,11.73387 -11.4344,15.56168 l -13.53208,9.0075 -34.26601,28.81751 c -20.29445,17.06751 -17.33416,13.20041 -24.98632,18.35719 -13.6233,9.18075 -12.63483,10.06588 15.61349,32.55693 l 17.05392,13.57816 11.40806,12.52956 8.20976,7.32917 -138.04699,-0.68199 C 30.691995,406.50292 27.139138,406.70257 22.311418,401.87485 Z M 146.49502,220.22215 c -28.68844,-5.89033 -53.489365,-25.54308 -66.458985,-52.66333 -7.65129,-15.99934 -7.8124,-17.10062 -7.72306,-52.79141 0.0792,-31.655342 0.7864,-37.939622 5.37473,-47.763702 12.7863,-27.37675 32.123215,-44.73304 59.240975,-53.17304 27.2759,-8.4891997 54.20917,-4.3729597 78.98586,12.07152 15.14306,10.05056 23.70323,20.53873 33.06292,40.50959 6.32704,13.50009 6.75735,16.66285 6.75735,49.665402 0,34.7391 -0.11864,35.48816 -8.23074,51.96611 -18.84476,38.2792 -61.4682,60.29743 -101.00905,52.17886 z"
   id="path1"
   sodipodi:nodetypes="sssscscscsscsscssscccsssscssssscs" /><path
   style="fill:#000000;stroke-width:1.88541"
   d="m 289.36086,414.01694 c 0.92175,-0.92175 1.67592,-8.27484 1.67592,-16.3402 v -14.66428 h 36.61649 c 20.43329,0 38.76555,-1.15014 41.47898,-2.60233 4.35208,-2.32917 4.86248,-5.48647 4.86248,-30.0781 0,-24.59163 -0.5104,-27.74893 -4.86248,-30.07809 -2.71343,-1.45215 -21.04569,-2.6023 -41.47898,-2.6023 h -36.61649 v -15.16216 c 0,-10.91031 -1.01989,-15.55355 -3.63692,-16.55778 -3.66259,-1.40549 -79.32104,59.90877 -79.32104,64.28245 0,2.6779 74.18151,65.47871 77.34467,65.47871 1.2438,0 3.01561,-0.75417 3.93737,-1.67592 z"
   id="path1-3"
   sodipodi:nodetypes="sscssssscsssss" /></svg>
