<?xml version="1.0" encoding="UTF-8" standalone="no"?>
<!-- Created with Inkscape (http://www.inkscape.org/) -->

<svg
   version="1.1"
   id="svg1"
   width="376.87634"
   height="276.41687"
   viewBox="0 0 376.87634 276.41688"
   sodipodi:docname="hidden.svg"
   inkscape:version="1.3.2 (1:1.3.2+202311252150+091e20ef0f)"
   xmlns:inkscape="http://www.inkscape.org/namespaces/inkscape"
   xmlns:sodipodi="http://sodipodi.sourceforge.net/DTD/sodipodi-0.dtd"
   xmlns="http://www.w3.org/2000/svg"
   xmlns:svg="http://www.w3.org/2000/svg">
  <defs
     id="defs1" />
  <sodipodi:namedview
     id="namedview1"
     pagecolor="#ffffff"
     bordercolor="#000000"
     borderopacity="0.25"
     inkscape:showpageshadow="2"
     inkscape:pageopacity="0.0"
     inkscape:pagecheckerboard="0"
     inkscape:deskcolor="#d1d1d1"
     inkscape:zoom="0.49396554"
     inkscape:cx="-91.099472"
     inkscape:cy="458.53401"
     inkscape:window-width="1920"
     inkscape:window-height="1017"
     inkscape:window-x="0"
     inkscape:window-y="26"
     inkscape:window-maximized="1"
     inkscape:current-layer="g1" />
  <g
     inkscape:groupmode="layer"
     inkscape:label="Image"
     id="g1"
     transform="translate(-150.01359,663.71473)">
    <path
       style="fill:#28303f;fill-opacity:1;stroke-width:0.785288"
       d="m 206.40433,-388.92216 c -5.1381,-2.9794 -7.46435,-9.64887 -5.34859,-15.33463 0.45245,-1.21587 9.00577,-10.41342 19.0074,-20.43902 10.00163,-10.02559 18.02421,-18.37639 17.82797,-18.55733 -0.19624,-0.18093 -5.6575,-3.87234 -12.13612,-8.20312 -20.89349,-13.96673 -42.05322,-32.01628 -59.11238,-50.4237 -15.636,-16.87179 -17.52712,-19.91047 -16.33755,-26.25139 1.29515,-6.90378 30.51354,-37.17517 53.92113,-55.86441 36.27774,-28.96511 71.49668,-45.90356 109.48106,-52.65463 12.22885,-2.17348 37.60716,-1.97318 51.04373,0.40285 15.63573,2.76491 27.62148,6.47508 47.35544,14.65879 l 3.37931,1.4014 21.35726,-21.27944 c 23.0459,-22.96192 23.24732,-23.10763 30.15296,-21.81212 3.86568,0.7252 8.56299,5.4225 9.2882,9.28819 1.40398,7.48388 10.82663,-2.55651 -128.2702,136.67947 -75.40375,75.47918 -128.79148,128.33445 -130.28294,128.98356 -3.59255,1.56355 -8.00441,1.332 -11.32668,-0.59447 z m 65.15892,-87.30471 14.38082,-14.3966 -2.71947,-5.03928 c -16.38794,-30.36743 -4.98564,-68.5516 25.37828,-84.98714 18.52307,-10.02625 42.2177,-9.9049 60.31559,0.30892 l 4.30772,2.43112 11.27183,-11.25172 c 6.19951,-6.18845 11.27184,-11.44292 11.27184,-11.6766 0,-0.70732 -12.51833,-5.21034 -20.43906,-7.35224 -28.00621,-7.57333 -54.31736,-6.69608 -82.71135,2.7577 -33.45613,11.13923 -65.84033,32.47239 -99.06128,65.25681 l -14.92047,14.72443 14.92047,14.75189 c 15.35073,15.17729 30.11685,27.61034 44.11346,37.1435 7.51763,5.12029 18.2229,11.68115 19.1102,11.71192 0.22033,0.008 6.87197,-6.46458 14.78142,-14.38271 z m 58.2142,-58.21433 24.69901,-24.70835 -3.10826,-1.35163 c -2.05245,-0.89249 -5.90914,-1.46189 -11.3538,-1.67626 -6.94187,-0.27331 -9.03847,-0.057 -13.26082,1.36789 -19.97244,6.74011 -30.21419,26.72993 -24.0568,46.95395 0.69037,2.26752 1.50867,4.12276 1.81843,4.12276 0.30977,0 11.67778,-11.11876 25.26224,-24.70836 z m -7.26319,121.22906 c -18.29368,-1.93341 -22.94219,-4.78332 -22.94219,-14.06545 0,-5.16744 1.4066,-7.73393 5.96186,-10.87803 2.88944,-1.99433 5.05073,-2.01132 19.56,-0.15373 27.73918,3.5514 61.83321,-4.60212 93.46985,-22.35314 22.07975,-12.38873 42.82966,-28.40848 64.7657,-50.00167 l 14.92047,-14.68727 -12.17196,-12.24908 c -6.69459,-6.73698 -16.0581,-15.50275 -20.80781,-19.47946 -14.04719,-11.76105 -15.86216,-13.74145 -16.50162,-18.0057 -1.32817,-8.85683 6.85019,-16.21055 15.47265,-13.91253 7.62409,2.03193 46.08335,37.70426 58.85541,54.59049 5.35145,7.07525 5.08384,11.88869 -1.07726,19.37674 -28.85182,35.0658 -72.80151,69.44211 -109.69263,85.79876 -30.48224,13.51509 -61.3751,19.02553 -89.81247,16.02007 z"
       id="path1-1" />
  </g>
</svg>
