<?xml version="1.0" encoding="UTF-8" standalone="no"?>
<!-- Uploaded to: SVG Repo, www.svgrepo.com, Generator: SVG Repo Mixer Tools -->

<svg
   fill="#000000"
   version="1.1"
   id="Capa_1"
   width="800px"
   height="800px"
   viewBox="0 0 416.979 416.979"
   xml:space="preserve"
   sodipodi:docname="info-icon.svg"
   inkscape:version="1.3.2 (1:1.3.2+202311252150+091e20ef0f)"
   xmlns:inkscape="http://www.inkscape.org/namespaces/inkscape"
   xmlns:sodipodi="http://sodipodi.sourceforge.net/DTD/sodipodi-0.dtd"
   xmlns="http://www.w3.org/2000/svg"
   xmlns:svg="http://www.w3.org/2000/svg"><defs
   id="defs1" /><sodipodi:namedview
   id="namedview1"
   pagecolor="#ffffff"
   bordercolor="#000000"
   borderopacity="0.25"
   inkscape:showpageshadow="2"
   inkscape:pageopacity="0.0"
   inkscape:pagecheckerboard="0"
   inkscape:deskcolor="#d1d1d1"
   inkscape:zoom="0.4775"
   inkscape:cx="372.77487"
   inkscape:cy="593.71728"
   inkscape:window-width="1920"
   inkscape:window-height="1017"
   inkscape:window-x="0"
   inkscape:window-y="26"
   inkscape:window-maximized="1"
   inkscape:current-layer="Capa_1" />

<path
   style="fill:#000000;stroke-width:2.17404"
   d="M 179.89168,395.86278 C 116.29342,383.61019 67.369622,346.07461 41.960703,290.03863 29.375354,262.28331 26.748985,249.44765 26.750405,215.70307 c 0.0012,-32.17368 2.365808,-45.37626 12.71541,-70.99923 16.145986,-39.9735 54.134567,-78.985701 94.185525,-96.723477 53.10697,-23.520029 118.45505,-19.533732 168.49306,10.278106 21.70709,12.93276 50.57286,42.072651 63.35931,63.961051 53.05836,90.82753 18.62861,208.50635 -74.73806,255.45022 -26.76329,13.45631 -44.43258,17.69765 -77.17641,18.52556 -15.54435,0.3929 -30.70823,0.24359 -33.69756,-0.33243 z m 17.20501,-70.64979 c 14.57927,-4.92348 40.84665,-21.34487 50.70968,-31.70182 5.51178,-5.78779 5.71074,-6.60106 2.6755,-10.9345 l -3.27918,-4.68168 -10.28462,6.26938 c -5.65653,3.44815 -12.73038,6.57549 -15.71967,6.94968 -4.86174,0.60851 -5.38154,-0.0292 -4.92743,-6.06009 0.27904,-3.7072 4.92622,-23.39168 10.3267,-43.74323 14.66619,-55.26951 13.02919,-68.1065 -8.27769,-64.91133 -15.24112,2.28556 -56.20887,23.56102 -70.37263,36.54609 -4.32113,3.96151 -4.47375,4.82249 -1.62552,9.16949 l 3.14344,4.79743 12.49564,-6.09946 c 11.18885,-5.46158 20.10483,-7.80244 20.10483,-5.27843 0,0.50516 -3.96956,17.38112 -8.82121,37.50213 -12.38164,51.34964 -13.05276,55.48374 -10.50506,64.71079 3.5359,12.80605 12.66757,14.79028 34.35722,7.46555 z m 37.15105,-183.51508 c 9.75898,-4.89361 13.71883,-11.27177 14.75496,-23.76599 0.90398,-10.90126 0.46189,-12.34844 -5.63531,-18.445638 -17.05836,-17.058354 -52.60553,-0.82695 -52.60553,24.020498 0,19.09432 22.72599,28.60112 43.48588,18.19113 z"
   id="path1" /></svg>
