<?xml version="1.0" encoding="UTF-8" standalone="no"?>
<svg
   width="169.0349"
   height="224.64601"
   viewBox="0 0 169.0349 224.64601"
   fill="none"
   version="1.1"
   id="svg7"
   sodipodi:docname="lock.svg"
   inkscape:version="1.3.2 (1:1.3.2+202311252150+091e20ef0f)"
   xmlns:inkscape="http://www.inkscape.org/namespaces/inkscape"
   xmlns:sodipodi="http://sodipodi.sourceforge.net/DTD/sodipodi-0.dtd"
   xmlns="http://www.w3.org/2000/svg"
   xmlns:svg="http://www.w3.org/2000/svg">
  <defs
     id="defs7" />
  <sodipodi:namedview
     id="namedview7"
     pagecolor="#ffffff"
     bordercolor="#000000"
     borderopacity="0.25"
     inkscape:showpageshadow="2"
     inkscape:pageopacity="0.0"
     inkscape:pagecheckerboard="0"
     inkscape:deskcolor="#d1d1d1"
     inkscape:zoom="0.91992188"
     inkscape:cx="113.05308"
     inkscape:cy="309.26539"
     inkscape:window-width="1920"
     inkscape:window-height="1017"
     inkscape:window-x="0"
     inkscape:window-y="26"
     inkscape:window-maximized="1"
     inkscape:current-layer="svg7" />
  <path
     style="fill:#28303f;fill-opacity:1"
     d="M 12.514263,223.1919 C 7.5174026,221.42506 2.4921926,216.07775 1.0929126,211.03847 c -1.44574999,-5.20664 -1.46240999,-98.42233 -0.0185,-103.62175 1.30526,-4.70021 6.36809,-10.585822 10.6421304,-12.371632 1.77843,-0.74307 6.12133,-1.35104 9.65089,-1.35104 h 6.41738 l 0.47073,-23.75 c 0.40946,-20.65838 0.74638,-24.59613 2.58826,-30.25 4.97982,-15.286094 15.4586,-27.357962 29.64214,-34.1486083 30.84511,-14.767701 66.929667,1.091447 77.698827,34.1486083 1.84189,5.65387 2.17881,9.59162 2.58826,30.25 l 0.47074,23.75 h 6.41738 c 3.52956,0 7.87245,0.60797 9.65088,1.35104 4.27404,1.78581 9.33687,7.671422 10.64213,12.371632 1.47452,5.30969 1.42493,98.42315 -0.0553,103.75478 -1.41518,5.0975 -7.30967,10.99199 -12.40717,12.40717 -2.72777,0.75729 -25.18533,1.09219 -71.477447,1.06591 -55.55809,-0.0315 -68.20767,-0.28854 -71.5,-1.45268 z m 144.227647,-10.76991 2.77235,-2.77207 0.27755,-49.01875 c 0.30284,-53.48688 0.2311,-54.24526 -5.37279,-56.79856 -3.54403,-1.61477 -136.265487,-1.61477 -139.809507,0 -5.6030404,2.55291 -5.6756404,3.31933 -5.3728004,56.71637 0.2684,47.32367 0.34347,49.00982 2.2775504,51.15885 1.1,1.22225 2.9,2.59544 4,3.05152 1.1,0.45608 32.70244,0.74047 70.22765,0.63197 l 68.227647,-0.19727 z M 131.50576,71.694048 c -0.007,-17.84756 -0.32453,-22.6516 -1.86886,-28.27886 C 123.45286,20.881534 100.15801,5.7068467 77.640343,9.5436697 59.587363,12.619747 45.295693,24.854624 39.791013,41.945908 c -1.66383,5.16593 -2.10123,9.918 -2.52536,27.4361 -0.28214,11.65338 -0.24153,21.89534 0.0902,22.75991 0.53855,1.40344 5.61754,1.54408 47.3808,1.31204 l 46.777577,-0.25991 z"
     id="path1-3" />
  <path
     style="fill:#28303f;fill-opacity:1;stroke-width:0.322973"
     d="m 80.362136,176.63027 c -4.357298,-1.50579 -7.369288,-4.88325 -8.379189,-9.39599 -1.097855,-4.90573 1.250338,-10.6998 5.398469,-13.32053 l 1.974753,-1.24761 6.46e-4,-8.54803 6.46e-4,-8.54799 1.430179,-1.43019 c 2.618813,-2.61882 6.630349,-2.26959 8.463282,0.7368 0.79199,1.299 0.869223,2.1602 0.870692,9.70898 l 0.0016,8.28351 1.698582,1.12408 c 2.4962,1.65191 4.681951,5.07281 5.273443,8.25338 1.79749,9.66551 -7.43114,17.59821 -16.73336,14.38359 z"
     id="path1"
     sodipodi:nodetypes="csscccssscsscc" />
</svg>
