<?xml version="1.0" encoding="UTF-8" standalone="no"?>
<!-- Created with Inkscape (http://www.inkscape.org/) -->

<svg
   version="1.1"
   id="svg1"
   width="512"
   height="512"
   viewBox="0 0 512 512"
   sodipodi:docname="logout.svg"
   inkscape:version="1.3.2 (1:1.3.2+202311252150+091e20ef0f)"
   xmlns:inkscape="http://www.inkscape.org/namespaces/inkscape"
   xmlns:sodipodi="http://sodipodi.sourceforge.net/DTD/sodipodi-0.dtd"
   xmlns="http://www.w3.org/2000/svg"
   xmlns:svg="http://www.w3.org/2000/svg">
  <defs
     id="defs1" />
  <sodipodi:namedview
     id="namedview1"
     pagecolor="#ffffff"
     bordercolor="#000000"
     borderopacity="0.25"
     inkscape:showpageshadow="2"
     inkscape:pageopacity="0.0"
     inkscape:pagecheckerboard="0"
     inkscape:deskcolor="#d1d1d1"
     inkscape:zoom="0.74609375"
     inkscape:cx="154.13613"
     inkscape:cy="329.04712"
     inkscape:window-width="1920"
     inkscape:window-height="1017"
     inkscape:window-x="0"
     inkscape:window-y="26"
     inkscape:window-maximized="1"
     inkscape:current-layer="g1" />
  <g
     inkscape:groupmode="layer"
     inkscape:label="Image"
     id="g1">
    <path
       style="fill:#ffffff;stroke-width:1.10758"
       d="M 105.27982,465.24351 C 83.816461,461.87945 66.509506,452.9352 51.694275,437.5505 37.59245,422.90662 29.341391,406.50477 25.839056,386.15431 c -1.584608,-9.20745 -1.584608,-261.73545 0,-270.94288 C 29.339941,94.869379 37.580724,78.483647 51.694275,63.801668 64.129706,50.86541 77.402705,42.969254 95.111077,37.972884 103.6184,35.572561 105.4192,35.509031 164.43875,35.527436 c 59.46928,0.01854 60.75553,0.06573 69.32767,2.544091 26.23159,7.583923 48.48461,26.226862 59.80086,50.09939 7.88105,16.625743 8.7518,21.136483 9.26895,48.016863 0.43737,22.73278 0.32591,24.5573 -1.75679,28.75884 -8.47597,17.09895 -30.92957,18.05557 -40.26258,1.71536 -2.95793,-5.17871 -3.04485,-5.82483 -3.5862,-26.65625 -0.55015,-21.17009 -0.58417,-21.41289 -4.06315,-28.99135 -6.71929,-14.636993 -20.13484,-25.152359 -35.32585,-27.689066 -8.68074,-1.449567 -97.08186,-1.54612 -106.68809,-0.116518 -19.018131,2.830262 -35.15063,18.068054 -39.450258,37.262324 -1.511798,6.74892 -1.511798,253.67458 0,260.42349 3.075689,13.73041 13.298323,26.96976 25.247344,32.69792 11.115534,5.32861 17.702714,5.81666 72.582234,5.37775 48.01147,-0.38398 50.29426,-0.49807 56.2997,-2.81388 12.52422,-4.82958 21.48544,-13.36767 27.43959,-26.14395 3.35662,-7.20256 3.41137,-7.59882 3.95848,-28.65245 0.54135,-20.83141 0.62827,-21.47753 3.5862,-26.65625 9.33301,-16.34021 31.78661,-15.38359 40.26258,1.71537 2.07878,4.19363 2.19588,6.06881 1.79573,28.75884 -0.42182,23.91882 -0.47987,24.4283 -3.98157,34.94713 -10.47123,31.4548 -33.96173,54.20652 -65.1861,63.136 -8.37894,2.39617 -10.61451,2.48903 -65.44753,2.71817 -31.22476,0.13049 -59.56582,-0.2006 -62.98015,-0.73575 z m 258.96144,-97.24623 c -8.37852,-3.73939 -13.10909,-11.4057 -13.10909,-21.24441 0,-4.00703 0.76092,-7.77387 2.10856,-10.4383 1.15971,-2.29287 14.42477,-16.80583 29.47791,-32.25106 15.05315,-15.4452 27.36936,-28.46522 27.36936,-28.93336 0,-0.46812 -61.7485,-0.85114 -137.21889,-0.85114 -136.95278,0 -137.228,-0.004 -141.93199,-2.34815 -6.14479,-3.06143 -10.80947,-9.0085 -12.39236,-15.79919 -2.50792,-10.75915 2.6332,-21.83464 12.39236,-26.69681 4.70399,-2.34359 4.97921,-2.34814 141.93199,-2.34814 75.47039,0 137.21889,-0.38301 137.21889,-0.85114 0,-0.46813 -12.31621,-13.48815 -27.36936,-28.93336 -15.05314,-15.44523 -28.3182,-29.95819 -29.47791,-32.25105 -4.23121,-8.36552 -2.09702,-21.0681 4.62369,-27.51996 6.28786,-6.03634 18.29995,-7.79734 25.79154,-3.78111 6.05743,3.24738 102.37788,103.01017 104.45551,108.18858 2.13753,5.32774 2.13753,12.16063 0,17.48838 -2.07763,5.17841 -98.39808,104.9412 -104.45551,108.18858 -4.90845,2.63142 -13.97451,2.80962 -19.4147,0.38164 z"
       id="path1" />
  </g>
</svg>
