<?xml version="1.0" encoding="UTF-8" standalone="no"?>
<!-- Uploaded to: SVG Repo, www.svgrepo.com, Generator: SVG Repo Mixer Tools -->

<svg
   fill="#000000"
   height="800px"
   width="800px"
   version="1.1"
   id="Layer_1"
   viewBox="0 0 458.624 458.624"
   xml:space="preserve"
   sodipodi:docname="share.svg"
   inkscape:version="1.3.2 (1:1.3.2+202311252150+091e20ef0f)"
   xmlns:inkscape="http://www.inkscape.org/namespaces/inkscape"
   xmlns:sodipodi="http://sodipodi.sourceforge.net/DTD/sodipodi-0.dtd"
   xmlns="http://www.w3.org/2000/svg"
   xmlns:svg="http://www.w3.org/2000/svg"><defs
   id="defs2" /><sodipodi:namedview
   id="namedview2"
   pagecolor="#ffffff"
   bordercolor="#000000"
   borderopacity="0.25"
   inkscape:showpageshadow="2"
   inkscape:pageopacity="0.0"
   inkscape:pagecheckerboard="0"
   inkscape:deskcolor="#d1d1d1"
   inkscape:zoom="0.955"
   inkscape:cx="400"
   inkscape:cy="399.47644"
   inkscape:window-width="1920"
   inkscape:window-height="1017"
   inkscape:window-x="0"
   inkscape:window-y="26"
   inkscape:window-maximized="1"
   inkscape:current-layer="Layer_1" />
<g
   id="g2"
   style="fill:#ffffff">
	<g
   id="g1"
   style="fill:#ffffff">
		<path
   d="M339.588,314.529c-14.215,0-27.456,4.133-38.621,11.239l-112.682-78.67c1.809-6.315,2.798-12.976,2.798-19.871    c0-6.896-0.989-13.557-2.798-19.871l109.64-76.547c11.764,8.356,26.133,13.286,41.662,13.286c39.79,0,72.047-32.257,72.047-72.047    C411.634,32.258,379.378,0,339.588,0c-39.79,0-72.047,32.257-72.047,72.047c0,5.255,0.578,10.373,1.646,15.308l-112.424,78.491    c-10.974-6.759-23.892-10.666-37.727-10.666c-39.79,0-72.047,32.257-72.047,72.047s32.256,72.047,72.047,72.047    c13.834,0,26.753-3.907,37.727-10.666l113.292,79.097c-1.629,6.017-2.514,12.34-2.514,18.872c0,39.79,32.257,72.047,72.047,72.047    c39.79,0,72.047-32.257,72.047-72.047C411.635,346.787,379.378,314.529,339.588,314.529z"
   id="path1"
   style="fill:#ffffff" />
	</g>
</g>
</svg>
