<?xml version="1.0" encoding="UTF-8" standalone="no"?>
<!-- Created with Inkscape (http://www.inkscape.org/) -->

<svg
   version="1.1"
   id="svg1"
   width="330.02603"
   height="290.88235"
   viewBox="0 0 330.02603 290.88235"
   sodipodi:docname="2646223.svg"
   inkscape:version="1.3.2 (1:1.3.2+202311252150+091e20ef0f)"
   xmlns:inkscape="http://www.inkscape.org/namespaces/inkscape"
   xmlns:sodipodi="http://sodipodi.sourceforge.net/DTD/sodipodi-0.dtd"
   xmlns="http://www.w3.org/2000/svg"
   xmlns:svg="http://www.w3.org/2000/svg">
  <defs
     id="defs1" />
  <sodipodi:namedview
     id="namedview1"
     pagecolor="#ffffff"
     bordercolor="#000000"
     borderopacity="0.25"
     inkscape:showpageshadow="2"
     inkscape:pageopacity="0.0"
     inkscape:pagecheckerboard="0"
     inkscape:deskcolor="#d1d1d1"
     inkscape:zoom="1.1191406"
     inkscape:cx="283.25306"
     inkscape:cy="124.64922"
     inkscape:window-width="1920"
     inkscape:window-height="1017"
     inkscape:window-x="0"
     inkscape:window-y="26"
     inkscape:window-maximized="1"
     inkscape:current-layer="g1" />
  <g
     inkscape:groupmode="layer"
     inkscape:label="Image"
     id="g1"
     transform="translate(-5.8452303,-19.678067)">
    <path
       style="fill:#ffffff;stroke-width:1.34816"
       d="M 39.931779,306.53646 C 31.026107,303.74264 14.258515,286.41777 11.550101,277.21152 8.7179538,267.58467 8.4472106,65.12144 11.252974,55.01876 14.235889,44.278211 23.638056,33.588583 35.387532,27.579408 L 45.968023,22.168087 H 171.02528 c 101.83585,0 126.36429,0.461382 132.09621,2.484744 8.80611,3.108537 21.69796,14.837532 26.81659,24.397697 3.84824,7.187441 3.89878,8.48769 4.39779,113.145102 0.56337,118.15575 0.76241,115.93576 -11.69998,130.49526 -3.61922,4.22824 -10.66987,9.592 -15.66811,11.91944 l -9.0877,4.23173 -125.82843,-0.16594 C 86.142612,308.56287 44.227231,307.884 39.931779,306.53646 Z m 70.287981,-59.22794 c 8.8895,-5.89021 14.88645,-18.89545 13.23778,-28.70793 -1.79223,-10.66688 -13.14064,-22.01526 -23.807513,-23.80751 -9.812482,-1.64867 -22.817726,4.3483 -28.707928,13.23778 -8.30212,12.52958 -4.036814,31.18189 9.046774,39.56186 8.129119,5.20666 22.142907,5.0749 30.230887,-0.2842 z m 127.31502,-1.67212 c 2.47133,-4.40483 2.41442,-5.14093 -0.66019,-8.53834 -3.22239,-3.56067 -5.17597,-3.71794 -46.18584,-3.71794 h -42.82114 l -2.9445,4.49386 c -2.72908,4.16511 -2.72756,4.82497 0.0209,9.01958 l 2.96535,4.52568 43.46049,-0.48121 43.46049,-0.4812 z m 36.38624,-35.00424 c 4.46936,-4.04472 4.13763,-10.606 -0.70781,-13.99988 -3.42155,-2.39653 -12.58238,-2.79825 -63.81301,-2.79825 -57.42118,0 -59.96197,0.14405 -63.41302,3.59511 -4.32656,4.32655 -4.49507,6.9029 -0.79684,12.18287 l 2.79825,3.99506 h 61.32258 c 54.53877,0 61.68625,-0.32909 64.60985,-2.97491 z M 110.21976,132.26539 c 8.8895,-5.8902 14.88645,-18.89545 13.23778,-28.70795 -1.79223,-10.666869 -13.14064,-22.015256 -23.807513,-23.807489 -9.812482,-1.64868 -22.817726,4.348286 -28.707928,13.237782 -8.30212,12.529557 -4.036814,31.181887 9.046774,39.561847 8.129119,5.20666 22.142907,5.07491 30.230887,-0.28419 z m 126.70895,-0.4468 c 2.72763,-4.16289 2.72763,-4.82485 0,-8.98775 l -2.9445,-4.49387 H 191.4754 c -37.03236,0 -42.93232,0.38328 -45.79606,2.97493 -4.07898,3.69141 -4.17895,7.44076 -0.31234,11.71331 2.72346,3.0094 6.59452,3.28725 45.79607,3.28725 h 42.82114 z m 36.99231,-36.229579 c 4.46936,-4.044714 4.13763,-10.605976 -0.70781,-13.99987 -3.42155,-2.396533 -12.58238,-2.798245 -63.81301,-2.798245 -57.42118,0 -59.96197,0.144038 -63.41302,3.595089 -4.32656,4.326581 -4.49507,6.902931 -0.79684,12.182886 l 2.79825,3.995061 h 61.32258 c 54.53877,0 61.68625,-0.3291 64.60985,-2.974921 z"
       id="path1" />
  </g>
</svg>
