<?xml version="1.0" encoding="UTF-8" standalone="no"?>
<!-- Created with Inkscape (http://www.inkscape.org/) -->

<svg
   version="1.1"
   id="svg1"
   width="133.40047"
   height="146.51682"
   viewBox="0 0 133.40046 146.51681"
   sodipodi:docname="events.svg"
   inkscape:version="1.3.2 (1:1.3.2+202311252150+091e20ef0f)"
   xmlns:inkscape="http://www.inkscape.org/namespaces/inkscape"
   xmlns:sodipodi="http://sodipodi.sourceforge.net/DTD/sodipodi-0.dtd"
   xmlns="http://www.w3.org/2000/svg"
   xmlns:svg="http://www.w3.org/2000/svg">
  <defs
     id="defs1" />
  <sodipodi:namedview
     id="namedview1"
     pagecolor="#ffffff"
     bordercolor="#000000"
     borderopacity="0.25"
     inkscape:showpageshadow="2"
     inkscape:pageopacity="0.0"
     inkscape:pagecheckerboard="0"
     inkscape:deskcolor="#d1d1d1"
     inkscape:zoom="3.4453416"
     inkscape:cx="57.468902"
     inkscape:cy="75.609338"
     inkscape:window-width="1920"
     inkscape:window-height="1017"
     inkscape:window-x="0"
     inkscape:window-y="26"
     inkscape:window-maximized="1"
     inkscape:current-layer="g1" />
  <g
     inkscape:groupmode="layer"
     inkscape:label="Image"
     id="g1"
     transform="translate(-10.093747,-5.7296518)">
    <path
       style="fill:#ffffff;stroke-width:1.37125"
       d="m 17.000719,151.89602 c -2.397052,-0.8307 -4.393343,-2.45573 -5.59878,-4.55754 -1.390583,-2.4246 -1.302645,1.72551 -1.30621,-61.645213 -0.0041,-62.56398 -0.07323,-58.774925 1.126577,-61.266563 0.626071,-1.300224 2.324403,-3.091287 3.728369,-3.931965 2.126834,-1.273525 2.985538,-1.380539 11.077658,-1.380539 h 7.287057 l 0.0779,6.746542 c 0.07263,6.290549 0.109728,6.825218 0.548782,7.910566 0.935617,2.312831 2.877827,4.088063 5.216365,4.767894 1.626518,0.472842 3.970307,0.340955 5.443606,-0.306316 1.538578,-0.675949 3.27328,-2.418545 4.022712,-4.041015 l 0.630591,-1.365187 0.0664,-6.856242 0.06639,-6.856242 h 3.816543 3.816542 l 0.06625,6.965942 0.06626,6.965942 0.640011,1.305362 c 0.792541,1.616466 2.272011,3.085926 3.857684,3.831585 1.051165,0.494306 1.489488,0.566541 3.400696,0.560421 1.952113,-0.0063 2.320095,-0.07273 3.337748,-0.602942 1.50632,-0.784822 2.582378,-1.751247 3.285161,-2.950455 1.097646,-1.872991 1.139365,-2.2036 1.180155,-9.352481 l 0.03837,-6.723374 h 3.813127 3.813128 v 6.003546 c 0,3.301951 0.100197,6.531905 0.222668,7.177675 0.486235,2.563904 2.023094,4.59527 4.338096,5.733944 1.347534,0.662808 1.634861,0.720925 3.553697,0.718803 1.67827,-0.0019 2.292012,-0.09625 3.129943,-0.481387 1.552669,-0.713649 3.290043,-2.469737 4.031485,-4.07491 l 0.630592,-1.365187 0.0664,-6.856242 0.0664,-6.856242 h 3.816538 3.81655 l 0.0663,6.965942 0.0663,6.965942 0.63568,1.296224 c 0.76998,1.57007 2.22383,3.011764 3.8292,3.7972 1.70563,0.834485 4.24828,0.952381 6.032,0.279685 2.0049,-0.756115 3.39327,-2.024059 4.42229,-4.038761 l 0.8776,-1.718213 0.0602,-6.719159 0.0602,-6.71916 7.17994,-0.05955 c 4.31981,-0.03583 7.60142,0.03015 8.23799,0.165644 3.87901,0.825623 6.95842,4.117637 7.5969,8.121402 0.30902,1.937811 0.32026,115.080934 0.011,116.745554 -0.56753,3.06071 -2.79161,5.92779 -5.64793,7.2808 l -1.48209,0.70238 -59.018522,0.0485 c -55.548788,0.0457 -59.083194,0.026 -60.118391,-0.33264 z m 117.822761,-6.72348 c 0.41582,-0.17374 0.9553,-0.6427 1.19883,-1.04215 0.44005,-0.72175 0.44279,-0.9864 0.44279,-42.74129 0,-41.2848 -0.007,-42.027256 -0.42828,-42.717445 -0.9196,-1.508196 4.36999,-1.390278 -59.584246,-1.328273 l -57.837223,0.05607 -0.751033,0.819528 -0.751033,0.819527 v 42.298553 c 0,46.84485 -0.129171,42.80001 1.39685,43.73055 0.67209,0.40983 1.970319,0.41921 58.122372,0.42 49.491393,7.2e-4 57.539493,-0.0429 58.190973,-0.31507 z M 25.753384,128.6145 c -0.376408,-0.22953 -0.79601,-0.73754 -0.932449,-1.12892 -0.383661,-1.10058 -0.335531,-11.20145 0.05787,-12.14297 0.599894,-1.43576 0.661243,-1.44773 7.418423,-1.44773 h 6.090913 l 0.716512,0.63986 0.71651,0.63985 0.07096,5.66789 c 0.07989,6.38047 -0.02294,7.08984 -1.125064,7.76186 -0.64835,0.39532 -1.138535,0.42749 -6.515192,0.42749 -5.328223,0 -5.871287,-0.0348 -6.498482,-0.41733 z m 22.599812,-0.0155 c -0.254841,-0.10298 -0.674443,-0.45557 -0.932449,-0.78358 -0.453783,-0.57689 -0.469103,-0.79658 -0.469103,-6.72684 v -6.13048 l 0.641322,-0.64133 0.641324,-0.64132 5.66642,-0.0243 c 6.311573,-0.027 6.604348,-0.0159 7.145097,0.27252 0.951205,0.50733 1.044419,1.17151 1.044419,7.4418 v 5.95662 l -0.745959,0.74596 -0.745959,0.74596 -5.890883,-0.0138 c -3.239985,-0.008 -6.099388,-0.0982 -6.354229,-0.20112 z m 21.921623,-0.4335 c -1.098337,-0.6697 -1.201362,-1.38153 -1.123376,-7.76185 l 0.06927,-5.66789 0.716512,-0.63985 0.71651,-0.63986 h 6.090914 c 6.757174,0 6.818528,0.0123 7.418423,1.44772 0.385916,0.92363 0.441962,11.04115 0.06712,12.11641 -0.131338,0.37678 -0.562599,0.88516 -0.958347,1.12975 -0.675217,0.41731 -1.076076,0.44465 -6.507736,0.44387 -5.350157,-7.5e-4 -5.841255,-0.0332 -6.489294,-0.4283 z m 22.273794,-0.16042 c -0.322671,-0.2032 -0.692908,-0.60261 -0.822749,-0.88758 -0.150232,-0.32972 -0.236071,-2.71437 -0.236071,-6.55815 v -6.04005 l 0.641322,-0.64133 0.641322,-0.64132 6.21492,0.005 c 5.557133,0.004 6.264443,0.045 6.682883,0.38395 0.90869,0.73607 0.95813,1.11129 0.95813,7.27228 v 5.93474 l -0.6399,0.71652 -0.6399,0.71651 -6.106636,0.0546 c -5.406386,0.0483 -6.173918,0.0123 -6.693321,-0.31495 z m 22.364847,-0.1927 c -1.18485,-0.6429 -1.2643,-1.09424 -1.2643,-7.18221 0,-3.40802 0.0916,-5.83562 0.23581,-6.2493 0.47436,-1.36074 0.68871,-1.40061 7.40713,-1.37749 5.51515,0.0189 6.11965,0.0576 6.61804,0.42228 1.00414,0.73484 1.12859,1.63136 1.05497,7.59968 -0.0594,4.80785 -0.11546,5.5553 -0.45469,6.05452 -0.68889,1.01375 -1.1154,1.07655 -7.24745,1.06719 -4.65663,-0.007 -5.86301,-0.0708 -6.34951,-0.33467 z M 26.437774,106.94225 c -0.643582,-0.1664 -1.226965,-0.74084 -1.566089,-1.54206 -0.438127,-1.03514 -0.427349,-11.177149 0.01371,-12.231051 0.565201,-1.352691 0.974683,-1.433623 7.253631,-1.433623 6.41249,0 6.922611,0.09788 7.48147,1.435409 0.273293,0.654082 0.319954,1.807838 0.266353,6.586033 l -0.06498,5.793032 -0.71689,0.7169 -0.716889,0.7169 -5.755404,0.036 c -3.16547,0.0198 -5.952859,-0.0151 -6.194199,-0.0775 z m 21.913268,-0.38342 c -1.383672,-0.6022 -1.399398,-0.68546 -1.399398,-7.40908 v -6.090914 l 0.640202,-0.71651 0.640203,-0.71651 h 6.288886 6.288888 l 0.640202,0.71651 0.640201,0.71651 v 5.931228 c 0,6.628646 -0.07084,7.002806 -1.433623,7.572216 -1.050064,0.43874 -11.296146,0.43588 -12.305561,-0.003 z m 22.146799,-0.25809 c -1.284875,-0.63365 -1.386823,-1.17104 -1.386823,-7.310388 0,-6.106797 0.111208,-6.741309 1.288219,-7.349964 0.918102,-0.474769 11.492699,-0.509616 12.612905,-0.04156 1.388171,0.580015 1.492262,1.145591 1.415246,7.689576 -0.09217,7.831896 0.398175,7.368826 -7.794881,7.361296 -4.487365,-0.004 -5.559034,-0.0651 -6.134666,-0.34896 z m 22.391349,-0.1807 c -1.383673,-0.60221 -1.399397,-0.68547 -1.399397,-7.40909 v -6.090913 l 0.639875,-0.716511 0.639875,-0.71651 5.871468,-0.0653 c 6.350349,-0.07062 6.793019,-0.0085 7.554249,1.060587 0.40563,0.569641 0.43311,0.986 0.43311,6.560735 0,6.615692 -0.0358,6.796382 -1.4639,7.393082 -1.02161,0.42686 -11.288448,0.4134 -12.27528,-0.0161 z m 22.73457,-0.0472 c -1.90448,-0.62743 -1.9746,-0.89907 -1.9746,-7.649476 0,-4.58773 0.0607,-5.730159 0.33281,-6.256226 0.63879,-1.235281 1.05247,-1.309216 7.32497,-1.309216 3.58596,0 5.89215,0.08706 6.20893,0.234401 0.27718,0.128925 0.70143,0.499158 0.94277,0.822749 0.41404,0.555136 0.4388,0.93073 0.4388,6.653765 0,8.150163 0.49324,7.656113 -7.61709,7.629743 -2.93013,-0.009 -5.47559,-0.0661 -5.65659,-0.12574 z M 47.557751,84.15728 c -1.190094,-0.656443 -1.264306,-1.087338 -1.264306,-7.340948 0,-6.418056 0.07497,-6.799493 1.44924,-7.373699 1.046791,-0.437379 11.223148,-0.424912 12.276095,0.01504 1.396885,0.583655 1.413247,0.669376 1.413247,7.404017 v 6.090914 l -0.63989,0.71651 -0.639892,0.716511 -5.99695,0.05146 c -5.00597,0.04296 -6.096198,-0.0033 -6.597544,-0.279811 z m 22.264427,-0.172111 c -1.212189,-0.67321 -1.25475,-0.900592 -1.321306,-7.059137 -0.0903,-8.354966 -0.419084,-8.007237 7.571649,-8.007749 4.435214,-2.84e-4 5.466353,0.05981 6.223437,0.362741 1.442596,0.577212 1.514844,0.931551 1.514844,7.429457 0,6.171885 -0.07664,6.595236 -1.309217,7.232629 -0.85838,0.443885 -11.889984,0.480479 -12.679407,0.04206 z m 22.410967,-0.138543 c -0.254841,-0.105792 -0.674443,-0.460708 -0.932449,-0.788709 -0.452699,-0.575514 -0.469102,-0.801972 -0.469102,-6.476289 0,-3.233958 0.09433,-6.128011 0.209606,-6.431231 0.468702,-1.232779 0.948427,-1.335766 6.581433,-1.412879 6.130217,-0.08392 6.882397,-0.0021 7.725007,0.840538 l 0.62253,0.62253 v 6.156609 6.156608 l -0.63989,0.71651 -0.63989,0.716512 -5.996948,0.04607 c -3.298323,0.02534 -6.205457,-0.04048 -6.460297,-0.146269 z M 114.17148,83.41816 c -1.07954,-0.658273 -1.18084,-1.290539 -1.17728,-7.347616 0.004,-5.925011 0.0478,-6.192452 1.16469,-7.021753 0.59285,-0.440202 0.87239,-0.459949 6.51106,-0.459949 5.63867,0 5.91821,0.01975 6.51106,0.459949 1.11998,0.831616 1.16123,1.085698 1.1647,7.175087 0.003,4.635098 -0.0571,5.777021 -0.32958,6.30403 -0.63984,1.237324 -1.04638,1.309298 -7.39013,1.308397 -5.28417,-7.52e-4 -5.82778,-0.03597 -6.45452,-0.418145 z M 39.799447,34.285807 C 39.30483,34.054427 38.663086,33.532738 38.373349,33.126499 L 37.846555,32.387884 37.786275,20.375359 C 37.719454,7.0605583 37.663206,7.6277587 39.164126,6.4829474 c 0.810258,-0.6180135 2.280401,-0.9153865 3.282301,-0.6639256 0.941501,0.2363017 2.225996,1.5651689 2.512345,2.5991327 0.186868,0.6747516 0.240294,4.0581375 0.193149,12.2318435 -0.05924,10.269271 -0.100143,11.363042 -0.448891,12.000795 -0.959816,1.755219 -3.112352,2.472946 -4.90358,1.635014 z m 23.7128,0.100033 C 62.478368,33.935351 61.481757,32.654337 61.324985,31.5744 61.249795,31.056461 61.218439,25.597469 61.255295,19.443307 61.321735,8.3525417 61.326575,8.2470776 61.805129,7.4776633 63.313317,5.0528135 67.101414,5.2294248 68.312236,7.7810437 68.631935,8.45476 68.67221,9.8470625 68.67221,20.225087 v 11.685452 l -0.569559,0.971882 c -0.912468,1.557009 -2.941964,2.221694 -4.590413,1.503419 z m 23.458146,-0.112305 c -0.494618,-0.224627 -1.136362,-0.740791 -1.426099,-1.14703 L 85.017501,32.38789 84.957179,20.491496 C 84.890249,7.2907539 84.8593,7.6085709 86.319867,6.4945467 c 1.663009,-1.268439 4.201423,-0.836504 5.389324,0.917043 l 0.5485,0.8096796 0.06758,11.4251107 c 0.07246,12.250001 0.04138,12.670335 -1.020293,13.801629 -1.165248,1.241653 -2.752619,1.543969 -4.334587,0.825526 z m 23.712797,0.112305 c -1.03388,-0.450489 -2.03049,-1.731503 -2.18726,-2.81144 -0.0751,-0.517939 -0.10655,-5.976931 -0.0697,-12.131093 0.0665,-11.0907653 0.0713,-11.1962294 0.54984,-11.9656437 1.50818,-2.4248498 5.29628,-2.2482385 6.50711,0.3033804 0.31969,0.6737163 0.35996,2.0660188 0.35996,12.4440433 v 11.685452 l -0.5454,0.930653 c -0.91584,1.562775 -2.98409,2.255088 -4.61456,1.544648 z"
       id="path1" />
  </g>
</svg>
