<?xml version="1.0" encoding="UTF-8" standalone="no"?>
<!-- Created with Inkscape (http://www.inkscape.org/) -->

<svg
   version="1.1"
   id="svg1"
   width="115.2"
   height="115.2"
   viewBox="0 0 115.2 115.2"
   sodipodi:docname="join.svg"
   inkscape:version="1.3.2 (1:1.3.2+202311252150+091e20ef0f)"
   xmlns:inkscape="http://www.inkscape.org/namespaces/inkscape"
   xmlns:sodipodi="http://sodipodi.sourceforge.net/DTD/sodipodi-0.dtd"
   xmlns="http://www.w3.org/2000/svg"
   xmlns:svg="http://www.w3.org/2000/svg">
  <defs
     id="defs1" />
  <sodipodi:namedview
     id="namedview1"
     pagecolor="#ffffff"
     bordercolor="#000000"
     borderopacity="0.25"
     inkscape:showpageshadow="2"
     inkscape:pageopacity="0.0"
     inkscape:pagecheckerboard="0"
     inkscape:deskcolor="#d1d1d1"
     inkscape:zoom="1.6579862"
     inkscape:cx="4.2219894"
     inkscape:cy="182.45026"
     inkscape:window-width="1920"
     inkscape:window-height="1017"
     inkscape:window-x="0"
     inkscape:window-y="26"
     inkscape:window-maximized="1"
     inkscape:current-layer="g1" />
  <g
     inkscape:groupmode="layer"
     inkscape:label="Image"
     id="g1">
    <path
       style="fill:#ffffff;stroke-width:1.70915"
       d="M 6.0997801,111.40979 C 3.7819354,110.40099 2.6110362,108.55798 2.6126872,105.92103 2.6150801,102.02686 5.2221334,93.548467 8.3379683,87.301524 13.793033,76.364658 21.920959,68.009035 32.338637,62.628528 l 4.851877,-2.505904 4.193815,1.968035 c 5.010274,2.351174 9.369162,3.243881 14.551938,2.980227 l 3.829008,-0.194775 -2.041597,3.889581 c -2.864027,5.456444 -3.889722,9.807187 -3.856199,16.357043 0.04685,9.154787 3.060691,16.597635 9.5146,23.496895 l 3.345212,3.57604 -29.460083,-0.0214 C 13.681899,112.15721 7.4666538,112.00475 6.0997801,111.40984 Z M 80.822001,111.05178 C 76.706845,110.25405 70.814477,106.9916 67.496928,103.67405 53.599293,89.776424 59.109523,66.352031 77.858048,59.628184 c 4.524437,-1.622598 12.342026,-1.622598 16.866464,0 9.635018,3.455439 16.348398,11.511808 17.895758,21.475758 2.7959,18.003602 -13.626641,33.470488 -31.798269,29.947838 z m 8.203918,-10.3416 c 0.948009,-0.947996 1.093856,-1.823082 1.093856,-6.563135 v -5.469279 h 5.347584 c 6.314161,0 7.778681,-0.659185 7.778681,-3.501279 0,-3.082144 -1.46098,-3.853108 -7.713098,-4.070221 l -5.413167,-0.187989 v -5.070808 c 0,-5.879697 -0.998054,-7.952964 -3.828495,-7.952964 -2.830442,0 -3.828495,2.073267 -3.828495,7.952964 v 5.070808 l -5.413167,0.187989 c -6.092545,0.211576 -7.713105,1.015799 -7.713105,3.827778 0,2.999046 1.523077,3.743722 7.656992,3.743722 h 5.46928 v 4.958312 c 0,4.710211 0.513609,6.850782 1.859392,7.749382 1.148577,0.76693 3.615725,0.41275 4.703742,-0.67528 z M 48.006326,56.174624 C 37.207773,53.175665 29.261217,44.132895 27.695602,33.0621 c -0.736097,-5.205097 0.22171,-11.062421 2.6158,-15.996514 2.116181,-4.36134 8.267561,-10.349808 12.88706,-12.5457749 18.172198,-8.6384705 39.264323,4.6700293 39.264323,24.7746219 0,12.78386 -8.310296,23.640584 -20.532525,26.824063 -3.799746,0.989718 -10.465579,1.016586 -13.923934,0.05606 z"
       id="path1" />
  </g>
</svg>
