<?xml version="1.0" encoding="UTF-8" standalone="no"?>
<!-- Created with Inkscape (http://www.inkscape.org/) -->

<svg
   version="1.1"
   id="svg1"
   width="115.2"
   height="115.2"
   viewBox="0 0 115.2 115.2"
   sodipodi:docname="menu-members.svg"
   inkscape:version="1.3.2 (1:1.3.2+202311252150+091e20ef0f)"
   xmlns:inkscape="http://www.inkscape.org/namespaces/inkscape"
   xmlns:sodipodi="http://sodipodi.sourceforge.net/DTD/sodipodi-0.dtd"
   xmlns="http://www.w3.org/2000/svg"
   xmlns:svg="http://www.w3.org/2000/svg">
  <defs
     id="defs1" />
  <sodipodi:namedview
     id="namedview1"
     pagecolor="#ffffff"
     bordercolor="#000000"
     borderopacity="0.25"
     inkscape:showpageshadow="2"
     inkscape:pageopacity="0.0"
     inkscape:pagecheckerboard="0"
     inkscape:deskcolor="#d1d1d1"
     inkscape:zoom="3.3159724"
     inkscape:cx="35.886909"
     inkscape:cy="106.00209"
     inkscape:window-width="1920"
     inkscape:window-height="1017"
     inkscape:window-x="0"
     inkscape:window-y="26"
     inkscape:window-maximized="1"
     inkscape:current-layer="g1" />
  <g
     inkscape:groupmode="layer"
     inkscape:label="Image"
     id="g1">
    <path
       style="fill:#ffffff;stroke-width:0.242974"
       d="m 13.904139,112.52906 c -0.443725,-0.21865 -1.099752,-0.78155 -1.457843,-1.25088 l -0.651077,-0.85333 -0.07575,-10.34558 c -0.05015,-6.847032 0.01998,-11.125584 0.20723,-12.652183 1.333345,-10.869203 8.873879,-20.047777 19.354136,-23.558464 3.413489,-1.14345 6.19431,-1.466388 12.641232,-1.468027 l 5.642748,-0.0017 -1.336387,1.96261 c -3.43178,5.039911 -5.105975,10.11473 -5.364359,16.260437 -0.232057,5.519546 0.845998,10.450592 3.359401,15.365974 1.56159,3.053965 3.091223,5.140663 5.701183,7.777463 4.46048,4.50634 10.610211,7.72146 16.604894,8.68114 1.002267,0.16045 1.98631,0.32387 2.186764,0.36313 0.200453,0.0393 -12.318768,0.0816 -27.820489,0.0941 -25.634161,0.0206 -28.257969,-0.0133 -28.991713,-0.3749 z m 85.604585,0.0588 c -0.400907,-0.18192 -3.283275,-2.89686 -6.405269,-6.03321 l -5.676344,-5.70245 -1.57474,0.95668 c -1.893158,1.15014 -4.518669,2.22813 -6.786771,2.78653 -2.435488,0.59962 -7.883365,0.5924 -10.293049,-0.0136 C 59.904555,102.35156 53.599446,96.198999 51.22726,87.461013 50.552762,84.976496 50.490987,79.14735 51.112646,76.646443 53.006905,69.025926 58.255959,62.96026 65.37092,60.169946 c 3.072188,-1.204835 4.960188,-1.537297 8.625567,-1.518901 3.747701,0.01884 5.484256,0.337989 8.592232,1.579233 5.546264,2.215031 10.528525,7.155543 12.85746,12.749708 1.204803,2.893955 1.614567,5.143976 1.61301,8.857057 -8.16e-4,3.082038 -0.08439,3.824696 -0.66384,5.931887 -0.637884,2.319755 -2.083642,5.576827 -3.068152,6.912107 l -0.472648,0.641048 5.796871,5.831365 c 4.96515,4.99469 5.83605,5.97952 6.06991,6.864 0.49903,1.88739 -0.3153,3.67864 -2.02539,4.45523 -1.17914,0.53545 -2.18124,0.57169 -3.187216,0.11521 z M 77.155144,97.02308 c 6.978725,-1.460167 12.26173,-8.003115 12.26173,-15.186005 0,-5.760716 -3.413603,-11.30674 -8.503862,-13.816087 -6.223893,-3.068193 -13.155986,-1.963026 -17.986556,2.867543 -6.119096,6.119091 -6.122734,15.796211 -0.0082,21.879408 3.827264,3.807669 8.994442,5.35204 14.23691,4.255141 z M 47.876813,58.400324 C 47.67636,58.351971 46.692315,58.179127 45.690049,58.016206 38.95552,56.921436 31.963752,52.399836 28.119797,46.653456 22.502441,38.256001 21.817539,28.235966 26.248154,19.271364 32.059694,7.5127118 44.817496,1.7626378 57.755198,5.0708076 c 2.728346,0.6976388 7.342894,3.0513385 9.723162,4.9593974 5.049302,4.047599 8.428288,9.640688 9.8398,16.287395 0.401434,1.890323 0.399582,8.084358 -0.003,9.961921 -2.389164,11.143207 -10.399696,19.300245 -21.265098,21.654019 -1.593597,0.345222 -7.320979,0.672319 -8.173274,0.466784 z"
       id="path1" />
  </g>
</svg>
