<?xml version="1.0" encoding="UTF-8" standalone="no"?>
<!-- Uploaded to: SVG Repo, www.svgrepo.com, Generator: SVG Repo Mixer Tools -->

<svg
   fill="#000000"
   version="1.1"
   id="Capa_1"
   width="800px"
   height="800px"
   viewBox="0 0 416.979 416.979"
   xml:space="preserve"
   sodipodi:docname="mutual-follow.svg"
   inkscape:version="1.3.2 (1:1.3.2+202311252150+091e20ef0f)"
   xmlns:inkscape="http://www.inkscape.org/namespaces/inkscape"
   xmlns:sodipodi="http://sodipodi.sourceforge.net/DTD/sodipodi-0.dtd"
   xmlns="http://www.w3.org/2000/svg"
   xmlns:svg="http://www.w3.org/2000/svg"><defs
   id="defs1" /><sodipodi:namedview
   id="namedview1"
   pagecolor="#ffffff"
   bordercolor="#000000"
   borderopacity="0.25"
   inkscape:showpageshadow="2"
   inkscape:pageopacity="0.0"
   inkscape:pagecheckerboard="0"
   inkscape:deskcolor="#d1d1d1"
   inkscape:zoom="0.16882174"
   inkscape:cx="-716.73232"
   inkscape:cy="1039.558"
   inkscape:window-width="1920"
   inkscape:window-height="1017"
   inkscape:window-x="0"
   inkscape:window-y="26"
   inkscape:window-maximized="1"
   inkscape:current-layer="Capa_1" />

<path
   style="fill:#000000;stroke-width:1.88541"
   d="m 22.311418,401.87485 c -4.48231,-4.48228 -4.138058,-13.93275 -4.138058,-41.47622 0,-33.91265 3.44715,-51.69137 14.09785,-72.70949 9.23848,-18.23124 32.49884,-40.67283 51.442725,-49.63188 l 15.62108,-7.38759 9.068245,4.6185 c 15.78846,8.04112 35.79642,12.71674 54.14587,12.65329 21.48537,-0.0742 35.48226,-3.08991 53.16143,-11.45348 l 13.32914,-6.3057 14.60449,7.37652 c 8.03248,4.0571 19.67453,11.87851 25.87117,17.38089 l 11.26668,10.00436 0.79227,4.90284 c 1.17686,7.28276 2.88706,17.80793 -2.8635,21.63573 l -13.53208,9.0075 -34.26601,28.81751 c -20.29445,17.06752 -20.46253,16.37545 -28.07125,21.59611 -12.32161,8.45436 -18.1208,0.75291 10.12752,23.24396 l 17.05392,13.57816 11.40806,12.52956 8.20976,7.32917 -138.04699,-0.68199 C 30.691995,406.50292 27.139138,406.70257 22.311418,401.87485 Z M 146.49502,220.22215 c -28.68844,-5.89033 -53.489365,-25.54308 -66.458985,-52.66333 -7.65129,-15.99934 -7.8124,-17.10062 -7.72306,-52.79141 0.0792,-31.655342 0.7864,-37.939622 5.37473,-47.763702 12.7863,-27.37675 32.123215,-44.73304 59.240975,-53.17304 27.2759,-8.4891997 54.20917,-4.3729597 78.98586,12.07152 15.14306,10.05056 23.70323,20.53873 33.06292,40.50959 6.32704,13.50009 6.75735,16.66285 6.75735,49.665402 0,34.7391 -0.11864,35.48816 -8.23074,51.96611 -18.84476,38.2792 -61.4682,60.29743 -101.00905,52.17886 z"
   id="path1"
   sodipodi:nodetypes="sssscscscsscsscssscccsssscssssscs" /><path
   style="fill:#000000;stroke-width:1.42659"
   d="m 275.9024,410.87874 c 0.69744,-0.69743 1.26807,-6.2611 1.26807,-12.36371 v -11.09564 h 27.70564 c 15.46073,0 29.33172,-0.87024 31.38483,-1.96903 3.29297,-1.76235 3.67916,-4.15131 3.67916,-22.75841 0,-18.6071 -0.38619,-20.99606 -3.67916,-22.75841 -2.05311,-1.09875 -15.9241,-1.969 -31.38483,-1.969 h -27.70564 v -11.47236 c 0,-8.25522 -0.77169,-11.7685 -2.75185,-12.52835 -2.77128,-1.06345 -60.01778,45.32961 -60.01778,48.63893 0,2.02622 56.12899,49.54406 58.52237,49.54406 0.94112,0 2.28174,-0.57064 2.97919,-1.26808 z"
   id="path1-3"
   sodipodi:nodetypes="sscssssscsssss" /><path
   style="fill:#000000;stroke-width:1.42659"
   d="m 351.12229,336.99537 c -0.69744,-0.69743 -1.26808,-6.26109 -1.26808,-12.3637 v -11.09565 h -27.70564 c -15.46072,0 -29.33171,-0.87024 -31.38481,-1.96903 -3.29298,-1.76235 -3.67917,-4.1513 -3.67917,-22.75841 0,-18.6071 0.38619,-20.99606 3.67917,-22.7584 2.0531,-1.09876 15.92409,-1.96901 31.38481,-1.96901 h 27.70564 v -11.47236 c 0,-8.25522 0.7717,-11.7685 2.75186,-12.52834 2.77128,-1.06346 60.01778,45.3296 60.01778,48.63892 0,2.02622 -56.12899,49.54406 -58.52237,49.54406 -0.94112,0 -2.28174,-0.57064 -2.97919,-1.26808 z"
   id="path1-3-7"
   sodipodi:nodetypes="sscssssscsssss" /></svg>
