<?xml version="1.0" encoding="UTF-8" standalone="no"?>
<svg
   fill="#FFFFFF"
   viewBox="0 0 24 24"
   width="96px"
   height="96px"
   version="1.1"
   id="svg1"
   sodipodi:docname="plus-icon.svg"
   inkscape:version="1.3.2 (1:1.3.2+202311252150+091e20ef0f)"
   xmlns:inkscape="http://www.inkscape.org/namespaces/inkscape"
   xmlns:sodipodi="http://sodipodi.sourceforge.net/DTD/sodipodi-0.dtd"
   xmlns="http://www.w3.org/2000/svg"
   xmlns:svg="http://www.w3.org/2000/svg">
  <defs
     id="defs1" />
  <sodipodi:namedview
     id="namedview1"
     pagecolor="#ffffff"
     bordercolor="#000000"
     borderopacity="0.25"
     inkscape:showpageshadow="2"
     inkscape:pageopacity="0.0"
     inkscape:pagecheckerboard="0"
     inkscape:deskcolor="#d1d1d1"
     inkscape:zoom="2.8136957"
     inkscape:cx="84.941665"
     inkscape:cy="29.320868"
     inkscape:window-width="1920"
     inkscape:window-height="1017"
     inkscape:window-x="0"
     inkscape:window-y="26"
     inkscape:window-maximized="1"
     inkscape:current-layer="svg1" />
  <path
     style="fill:#ffffff;stroke-width:0.0360422"
     d="M 10.996592,23.014158 C 10.220995,22.826431 9.6918846,22.322649 9.3630277,21.458798 9.2639946,21.198659 9.2611724,21.114311 9.2468975,17.987876 L 9.232265,14.783574 6.1705995,14.764916 C 3.4876827,14.748571 3.0747092,14.736323 2.8322786,14.66588 1.9033585,14.395974 1.2690849,13.75197 1.0351593,12.841193 0.92498468,12.412236 0.96780024,11.643342 1.1257928,11.213543 1.3846367,10.509392 1.9180853,10.037783 2.7265583,9.7983489 2.9840656,9.7220929 3.3253906,9.7117279 6.1244591,9.6952829 l 3.1116382,-0.01829 V 6.606626 c 0,-2.0697157 0.017428,-3.1533662 0.053475,-3.3250311 0.090086,-0.429017 0.3487793,-0.9268958 0.640535,-1.2327711 0.4850377,-0.5085115 0.9967047,-0.7031786 1.8289407,-0.6958335 0.60557,0.00534 0.978543,0.101459 1.371006,0.3532998 0.477988,0.3067256 0.870044,0.8814214 1.030764,1.5109511 0.06172,0.2417888 0.07313,0.767445 0.07313,3.3733571 v 3.0869366 l 3.08761,0.01871 c 2.305083,0.01397 3.148507,0.03435 3.32789,0.08043 0.822232,0.211224 1.429399,0.7344121 1.703469,1.4678561 0.13693,0.366437 0.182072,1.067175 0.100067,1.553351 -0.155031,0.919133 -0.786024,1.589743 -1.75548,1.865703 -0.254868,0.07255 -0.646728,0.0843 -3.375946,0.101273 l -3.08761,0.0192 v 3.064212 c 0,2.895627 -0.0053,3.084659 -0.09506,3.435903 -0.123401,0.482489 -0.299222,0.801584 -0.625781,1.135716 -0.290096,0.296822 -0.720426,0.529118 -1.1437,0.617393 -0.344265,0.07179 -1.028249,0.06026 -1.372806,-0.02315 z"
     id="path1"
     sodipodi:nodetypes="ssscsssssscssssssscsssssscsssss" />
</svg>
