<?xml version="1.0" encoding="UTF-8" standalone="no"?>
<!-- Created with Inkscape (http://www.inkscape.org/) -->

<svg
   version="1.1"
   id="svg1"
   width="351.06546"
   height="351.44888"
   viewBox="0 0 351.06546 351.44889"
   sodipodi:docname="refuse.svg"
   inkscape:version="1.3.2 (1:1.3.2+202311252150+091e20ef0f)"
   xmlns:inkscape="http://www.inkscape.org/namespaces/inkscape"
   xmlns:sodipodi="http://sodipodi.sourceforge.net/DTD/sodipodi-0.dtd"
   xmlns="http://www.w3.org/2000/svg"
   xmlns:svg="http://www.w3.org/2000/svg">
  <defs
     id="defs1" />
  <sodipodi:namedview
     id="namedview1"
     pagecolor="#ffffff"
     bordercolor="#000000"
     borderopacity="0.25"
     inkscape:showpageshadow="2"
     inkscape:pageopacity="0.0"
     inkscape:pagecheckerboard="0"
     inkscape:deskcolor="#d1d1d1"
     inkscape:zoom="0.49396554"
     inkscape:cx="54.659683"
     inkscape:cy="829.0052"
     inkscape:window-width="1920"
     inkscape:window-height="1017"
     inkscape:window-x="0"
     inkscape:window-y="26"
     inkscape:window-maximized="1"
     inkscape:current-layer="g1" />
  <g
     inkscape:groupmode="layer"
     inkscape:label="Image"
     id="g1"
     transform="translate(-165.56927,711.1687)">
    <ellipse
       style="fill:none;stroke:#28303f;stroke-width:37.0311;stroke-dasharray:none;stroke-opacity:1"
       id="path2"
       cx="341.58353"
       cy="-530.69904"
       rx="153.70271"
       ry="150.15314" />
    <path
       style="fill:#28303f;stroke:#28303f;stroke-opacity:1;fill-opacity:1"
       d="m 269.82181,-457.9955 -14.73779,-14.76241 29.49712,-29.48441 c 16.22342,-16.21643 29.49713,-29.93451 29.49713,-30.48462 0,-0.55012 -13.27643,-14.28218 -29.50318,-30.51569 l -29.50318,-29.51548 14.76241,-14.7378 14.76241,-14.73779 29.48441,29.49712 c 16.21643,16.22342 29.94014,29.49713 30.49713,29.49713 0.55699,0 14.2807,-13.27371 30.49713,-29.49713 l 29.48441,-29.49712 14.76241,14.73779 14.76241,14.7378 -29.50318,29.51548 c -16.22675,16.23351 -29.50318,29.95994 -29.50318,30.50318 0,0.54324 13.27643,14.26967 29.50318,30.50318 l 29.50318,29.51548 -14.76241,14.7378 -14.76241,14.73779 -29.48441,-29.49712 c -16.21643,-16.22342 -29.93451,-29.49713 -30.48462,-29.49713 -0.55012,0 -14.28218,13.27643 -30.51569,29.50318 l -29.51548,29.50318 z"
       id="path1" />
  </g>
</svg>
